<svg width="77" height="39" viewBox="0 0 77 39" fill="none" xmlns="http://www.w3.org/2000/svg">
<g clip-path="url(#clip0_146_1219)">
<path d="M35.6114 14.9921C35.0139 14.4148 34.9207 14.0898 35.0471 12.9664C35.1562 12.0551 35.0724 11.5728 34.6851 10.8605C34.339 10.2268 33.8506 9.92698 32.8216 9.73701C32.5434 9.68062 31.8938 9.55447 31.3801 9.45207C29.7694 9.12706 29.2225 9.1983 28.0086 9.90323C27.4933 10.1956 27.3416 10.2431 26.7093 10.298C26.3126 10.3381 25.8827 10.3455 25.7404 10.3306C25.6045 10.3143 25.3184 10.2742 25.1082 10.2505C24.4917 10.1882 24.1803 10.1169 24.1377 10.0457C24.0871 9.98189 24.6782 9.02466 24.939 8.74714C25.0149 8.65958 25.2251 8.35979 25.4116 8.07485C25.9506 7.22002 26.1861 6.98257 27.2499 6.23757C28.4385 5.39164 29.9812 3.98919 30.242 3.49945C30.4696 3.07203 30.427 2.80193 30.065 2.48583C29.9212 2.35968 29.6177 2.02725 29.3901 1.7423C28.7246 0.926063 27.1314 0 26.39 0C26.262 0 26.0091 0.08014 25.8242 0.182541C25.6219 0.293847 25.2172 0.688611 24.7699 1.21991C23.978 2.16081 24.2989 1.94711 21.1029 3.63301C20.5971 3.90312 19.9237 4.19548 19.6028 4.27414C19.0133 4.42551 18.1787 4.86034 17.9258 5.13045C17.5797 5.51779 17.175 6.15891 17.0912 6.45127C17.0407 6.61749 16.8794 6.92618 16.7372 7.12504C16.4495 7.51981 15.5312 8.39838 15.1771 8.60467C15.0507 8.68332 14.7219 8.91335 14.4437 9.11073C13.6265 9.70436 12.8836 10.1244 12.4284 10.2505C12.1929 10.3217 11.5433 10.4093 10.9869 10.4494C9.99267 10.528 9.44419 10.6304 8.28876 10.9391C7.65651 11.1053 7.35303 11.2241 6.22447 11.7465L5.50686 12.0715H4.47946C3.24025 12.0715 3.18019 12.1115 2.91939 12.95C2.6412 13.8761 2.33772 14.9847 2.26185 15.3557C2.21917 15.5546 2.1433 15.8544 2.1022 16.0295C1.95046 16.592 2.1433 16.9318 2.81823 17.3043C3.22286 17.5254 4.36882 17.9054 5.33932 18.1354C5.70918 18.2215 6.30034 18.3966 6.64491 18.5227C6.99107 18.6489 7.44629 18.7914 7.65651 18.8314C8.22237 18.9501 9.705 18.9338 10.5238 18.8003C11.2825 18.6726 11.4089 18.6815 12.547 18.919C12.9437 19.0051 13.6265 19.0926 14.0644 19.1164C14.5022 19.1475 15.1439 19.195 15.4885 19.2351C15.852 19.2752 16.6945 19.2663 17.5117 19.2188C19.8478 19.0852 20.7409 19.1639 23.2525 19.7412C23.7425 19.8525 24.1377 19.845 24.7952 19.71C25.0149 19.6699 25.8163 19.6313 26.575 19.6313C28.0845 19.6313 28.6314 19.5601 29.2225 19.2989C30.0982 18.919 31.2789 18.6415 32.9654 18.404C34.2963 18.2215 34.3722 18.1829 34.5413 17.5893C34.5998 17.4067 34.6678 17.2568 34.701 17.2568C34.8954 17.2479 35.6541 16.4406 35.9323 15.9345C36.1346 15.5546 36.1093 15.4596 35.6114 14.9921ZM34.7863 15.8395C34.6931 15.9419 34.4654 16.1868 34.2805 16.3857C34.0861 16.5831 33.8664 16.8843 33.7905 17.0669L33.6388 17.3904L32.9812 17.4379C32.4249 17.4779 31.4227 17.6204 30.6293 17.7629C29.9385 17.889 29.2636 18.1116 28.6488 18.3966C28.252 18.5866 27.7462 18.7839 27.5107 18.8388C26.8958 18.9902 24.5423 18.9976 24.2388 18.8626C24.1045 18.8003 23.2525 18.499 22.3421 18.1903C20.2019 17.4779 19.3168 17.3117 17.5876 17.3043C16.8636 17.2954 16.2393 17.3281 16.2061 17.3592C16.0702 17.4779 16.3578 17.5492 17.2082 17.6041C18.1107 17.6605 19.8558 17.9603 20.4295 18.1591C20.7583 18.269 20.733 18.2779 19.881 18.2378C19.3926 18.214 18.6924 18.1591 18.321 18.1191C17.2762 18.0078 16.7625 18.0315 16.3404 18.2141C16.0117 18.3565 15.8173 18.3803 14.9068 18.3728C13.6929 18.3491 13.078 18.2853 11.9574 18.0553C11.2904 17.9217 10.9363 17.8979 9.84883 17.9217C8.38202 17.9529 8.08644 17.9217 6.77136 17.5329C6.26556 17.3904 5.43099 17.1529 4.91729 17.0105C4.41149 16.8769 3.74605 16.6543 3.45838 16.5281C2.99525 16.3219 2.92729 16.2669 2.96997 16.1245C3.00316 16.0295 3.04584 15.792 3.07113 15.5932C3.09642 15.3958 3.14699 15.1108 3.18967 14.961C3.23077 14.8096 3.34931 14.3436 3.45047 13.931C3.67018 13.0613 3.73657 12.95 3.94837 13.0613C4.20917 13.1949 5.20338 13.1474 5.79454 12.9901C6.09802 12.9025 6.6544 12.7601 7.02426 12.6814C7.39571 12.5939 8.02005 12.4113 8.41521 12.2688C10.2535 11.6203 10.5743 11.5491 11.695 11.5179C13.3388 11.4778 13.508 11.3992 15.3209 9.91807C16.1555 9.23837 16.5254 8.86586 17.107 8.11344C17.5212 7.59104 17.9163 7.05381 17.9922 6.92618C18.4316 6.2064 19.2994 5.54153 19.8131 5.54153C20.1418 5.54153 20.7409 5.28034 21.272 4.91674C21.7098 4.60805 23.9021 3.32433 23.9859 3.32433C24.1219 3.32433 24.7794 2.80193 25.5381 2.09848L26.4311 1.2674L26.7599 1.37722C26.9464 1.43362 27.4348 1.64732 27.8569 1.8447C28.565 2.17714 29.3237 2.75444 29.3237 2.96073C29.3237 3.14327 29.0961 3.34065 26.6177 5.39906C26.2715 5.68401 25.8068 6.16633 25.5966 6.4676C25.3943 6.75996 25.0829 7.2037 24.9137 7.44115C24.7446 7.6786 24.4079 8.05853 24.155 8.28856C23.869 8.54085 23.5734 8.92968 23.3537 9.31702C22.9996 9.96556 22.8147 10.1644 22.3263 10.4256C21.9627 10.6156 20.6144 11.0979 19.9648 11.2715C19.7119 11.3354 19.1808 11.4778 18.7857 11.5891C18.2119 11.739 17.0739 11.9527 16.8131 11.9527C16.7878 11.9527 16.7625 12.0076 16.7625 12.0715C16.7625 12.2778 18.027 12.254 19.5855 12.024C21.1376 11.7865 21.9216 11.5802 22.9158 11.138L23.5307 10.8605L24.0112 11.0104C24.3147 11.1053 24.9975 11.1929 25.8748 11.2478C27.2404 11.3378 28.272 11.227 28.9696 10.9154C30.065 10.4167 30.3764 10.3856 31.7009 10.6468C33.4112 10.9866 33.5724 11.0578 33.7826 11.5966C33.9091 11.9127 33.9423 12.2139 33.9517 12.91C33.9517 14.0186 34.1446 14.6834 34.6251 15.2533L34.9459 15.6407L34.7863 15.8395Z" fill="black"/>
<path d="M34.946 15.6407L34.7863 15.8395C34.6931 15.9419 34.4655 16.1868 34.2805 16.3857C34.0861 16.583 33.8664 16.8843 33.7905 17.0669L33.6388 17.3904L32.9813 17.4379C32.4249 17.4779 31.4228 17.6204 30.6293 17.7629C29.9386 17.889 29.2636 18.1116 28.6488 18.3966C28.252 18.5865 27.7462 18.7839 27.5107 18.8388C26.8959 18.9902 24.5423 18.9976 24.2388 18.8626C24.1045 18.8003 23.2525 18.499 22.3421 18.1903C20.2019 17.4779 19.3168 17.3117 17.5876 17.3043C16.8637 17.2954 16.2393 17.3281 16.2061 17.3592C16.0702 17.4779 16.3579 17.5492 17.2082 17.6041C18.1108 17.6605 19.8558 17.9603 20.4295 18.1591C20.7583 18.269 20.733 18.2779 19.8811 18.2378C19.3927 18.214 18.6924 18.1591 18.321 18.1191C17.2762 18.0078 16.7625 18.0315 16.3405 18.214C16.0117 18.3565 15.8173 18.3803 14.9068 18.3728C13.6929 18.3491 13.0781 18.2853 11.9574 18.0552C11.2904 17.9217 10.9363 17.8979 9.84886 17.9217C8.38204 17.9528 8.08646 17.9217 6.77139 17.5329C6.26559 17.3904 5.43102 17.1529 4.91732 17.0105C4.41152 16.8769 3.74607 16.6543 3.4584 16.5281C2.99528 16.3218 2.92731 16.2669 2.96999 16.1245C3.00318 16.0295 3.04586 15.792 3.07115 15.5932C3.09644 15.3958 3.14702 15.1108 3.1897 14.961C3.23079 14.8096 3.34934 14.3436 3.4505 13.931C3.6702 13.0613 3.73659 12.95 3.94839 13.0613C4.2092 13.1949 5.20341 13.1474 5.79456 12.9901C6.09804 12.9025 6.65442 12.7601 7.02428 12.6814C7.39573 12.5939 8.02008 12.4113 8.41523 12.2688C10.2535 11.6203 10.5744 11.5491 11.695 11.5179C13.3389 11.4778 13.508 11.3992 15.321 9.91807C16.1555 9.23836 16.5254 8.86586 17.1071 8.11343C17.5212 7.59104 17.9164 7.0538 17.9922 6.92617C18.4316 6.20639 19.2994 5.54153 19.8131 5.54153C20.1419 5.54153 20.7409 5.28033 21.272 4.91673C21.7098 4.60805 23.9022 3.32432 23.9859 3.32432C24.1219 3.32432 24.7794 2.80193 25.5381 2.09848L26.4312 1.2674L26.7599 1.37722C26.9464 1.43361 27.4349 1.64732 27.8569 1.8447C28.565 2.17713 29.3237 2.75444 29.3237 2.96072C29.3237 3.14327 29.0961 3.34065 26.6177 5.39906C26.2715 5.684 25.8068 6.16633 25.5966 6.46759C25.3943 6.75996 25.0829 7.20369 24.9138 7.44114C24.7446 7.6786 24.408 8.05852 24.1551 8.28855C23.869 8.54084 23.5734 8.92967 23.3537 9.31702C22.9996 9.96556 22.8147 10.1644 22.3263 10.4256C21.9627 10.6156 20.6145 11.0979 19.9648 11.2715C19.7119 11.3354 19.1808 11.4778 18.7857 11.5891C18.2119 11.739 17.0739 11.9527 16.8131 11.9527C16.7878 11.9527 16.7625 12.0076 16.7625 12.0715C16.7625 12.2777 18.027 12.254 19.5855 12.024C21.1377 11.7865 21.9216 11.5802 22.9159 11.138L23.5307 10.8605L24.0112 11.0103C24.3147 11.1053 24.9975 11.1929 25.8748 11.2478C27.2404 11.3378 28.2721 11.227 28.9696 10.9154C30.065 10.4167 30.3764 10.3855 31.701 10.6467C33.4112 10.9866 33.5724 11.0578 33.7826 11.5966C33.9091 11.9127 33.9423 12.2139 33.9518 12.91C33.9518 14.0186 34.1446 14.6834 34.6251 15.2533L34.946 15.6407Z" fill="#9D6B97"/>
<path d="M47.8438 26.5887C47.828 25.5914 47.8106 25.4801 47.6415 25.2738C47.1958 24.7603 47.161 24.6252 47.161 23.668C47.161 23.0031 47.2211 22.5431 47.3633 21.9658C47.5324 21.2935 47.5577 20.961 47.5577 19.7886C47.5577 18.8388 47.5151 18.1903 47.4234 17.7317C47.2874 17.0505 47.2369 15.7208 47.2716 13.2988C47.2795 12.1501 47.1958 11.0816 47.0598 10.7254C46.8575 10.1956 46.3185 9.80822 45.5424 9.62568C45.0461 9.50696 44.1262 9.39565 44.0677 9.45205C44.0503 9.46689 43.7469 9.49954 43.3928 9.52328C42.6847 9.56187 42.28 9.72066 41.5814 10.2119C41.2179 10.4731 41.0835 10.6393 40.7468 11.2953C40.5271 11.7153 40.2821 12.2451 40.1984 12.4677C40.1146 12.6814 39.9455 13.0925 39.819 13.3774C39.3211 14.4771 39.2547 14.8734 39.2452 16.5444C39.2452 17.3904 39.2705 18.4277 39.3132 18.8388C39.3638 19.4176 39.3464 19.75 39.2373 20.2635C38.8406 22.2344 38.7568 23.4068 38.9671 24.3477C39.1441 25.1076 39.457 26.7386 39.4902 27.071C39.5155 27.2209 39.574 27.5622 39.6246 27.8234C39.7431 28.3606 39.7684 29.6043 39.6752 30.1979C39.642 30.4116 39.5329 31.0216 39.4397 31.544C39.22 32.7624 39.1868 33.1661 39.28 33.7998C39.3132 34.0847 39.3638 34.7496 39.3812 35.2794C39.4144 36.1506 39.4476 36.3004 39.6752 36.759C39.9455 37.3052 40.5192 38.1288 40.7373 38.3025C40.8132 38.3589 40.8733 38.4687 40.8733 38.5399C40.8812 38.7863 41.2273 38.9198 42.0271 38.9762C42.8791 39.0386 43.0814 39.0074 44.8343 38.4924C45.7037 38.2401 45.8459 38.1763 46.1842 37.8439C46.7058 37.3452 47.0946 36.7679 47.2369 36.293C47.4487 35.5881 47.5245 32.5324 47.3728 31.124C47.2874 30.3805 47.3048 30.1668 47.5324 29.168C47.6162 28.7732 47.7269 28.282 47.7774 28.0683C47.8185 27.8472 47.8533 27.1823 47.8438 26.5887ZM39.9455 16.3456C39.9455 15.7208 40.1051 15.1509 40.6109 14.0185C40.8385 13.5125 41.1088 12.855 41.2179 12.5538C41.5134 11.7464 41.5134 12.1115 41.2179 13.1474C40.5856 15.3883 40.3754 16.0206 40.1051 16.5281L39.9534 16.8205L39.9455 16.3456ZM46.5461 29.1294C46.4371 29.588 46.4023 29.9842 46.4197 30.8702C46.4371 31.5039 46.4529 32.3038 46.4624 32.6511C46.4782 33.6484 46.3517 36.1031 46.26 36.4904C46.2095 36.6878 46.0324 37.044 45.8633 37.2814C45.5598 37.7014 45.5345 37.7177 44.7932 37.9225C43.9334 38.16 42.4918 38.3425 42.0524 38.2639C41.4455 38.1526 41.4629 38.2001 41.4629 35.9131C41.4708 34.7808 41.4455 33.8384 41.4202 33.8146C41.2605 33.6647 41.1673 34.2747 40.9397 36.949L40.9144 37.2028L40.4765 36.8228C40.241 36.6165 40.0134 36.3405 39.9786 36.2218C39.9455 36.0942 39.9786 35.6667 40.0466 35.272C40.1225 34.7971 40.1399 34.4172 40.0972 34.156C39.9881 33.5386 40.0039 32.9598 40.1478 32.5487C40.3169 32.0664 40.5018 31.1715 40.6283 30.238C40.7294 29.4381 40.6868 28.6931 40.4765 27.6245C40.4513 27.4746 40.426 27.3159 40.4339 27.2847C40.4434 27.2535 40.4181 26.9997 40.3754 26.7311C40.1731 25.5439 40.0039 24.1904 39.9881 23.668C39.9787 23.4305 40.0039 22.9631 40.0387 22.6381C40.0719 22.3145 40.1225 21.8307 40.1478 21.5695C40.1731 21.3083 40.241 20.7073 40.2995 20.2398C40.3754 19.5675 40.3754 19.2113 40.2916 18.5776L40.1905 17.7629L40.4592 17.0579C40.603 16.6632 40.8132 16.0443 40.9318 15.6733C41.0408 15.3008 41.2605 14.5647 41.4297 14.0349C41.5893 13.5036 41.8343 12.5864 41.9687 11.9928C42.0951 11.3992 42.2216 10.9005 42.2389 10.8916C42.5582 10.6631 43.0229 10.4805 43.3596 10.4493C44.093 10.3692 45.5345 10.3781 45.6942 10.4568C45.8807 10.5517 46.0577 10.8768 46.1241 11.2404C46.1494 11.3902 46.2 12.4276 46.2253 13.5362C46.26 14.6433 46.3185 16.1244 46.3612 16.8205C46.5287 19.3464 46.5461 20.2873 46.4371 21.016C46.3865 21.4033 46.3264 22.1394 46.3106 22.647C46.2932 23.153 46.2427 23.7066 46.1921 23.8728C45.9471 24.6564 45.7542 27.2921 45.8965 27.8145C45.9218 27.9258 45.9977 28.0208 46.0577 28.0208C46.1842 28.0208 46.2095 27.9021 46.4023 26.3423L46.554 25.1001L46.7564 25.4326C47.0851 25.9787 47.0187 27.2773 46.5461 29.1294Z" fill="black"/>
<path d="M46.5462 29.1294C46.4371 29.588 46.4023 29.9842 46.4197 30.8702C46.4371 31.5039 46.4529 32.3038 46.4624 32.6511C46.4782 33.6484 46.3518 36.1031 46.2601 36.4904C46.2095 36.6878 46.0325 37.044 45.8633 37.2814C45.5599 37.7014 45.5346 37.7178 44.7933 37.9226C43.9334 38.16 42.4919 38.3425 42.0525 38.2639C41.4455 38.1526 41.4629 38.2001 41.4629 35.9131C41.4708 34.7808 41.4455 33.8384 41.4202 33.8146C41.2606 33.6647 41.1673 34.2747 40.9397 36.949L40.9144 37.2028L40.4766 36.8229C40.2411 36.6166 40.0135 36.3405 39.9787 36.2218C39.9455 36.0942 39.9787 35.6668 40.0467 35.272C40.1225 34.7971 40.1399 34.4172 40.0972 34.156C39.9882 33.5386 40.004 32.9598 40.1478 32.5487C40.3169 32.0664 40.5019 31.1715 40.6283 30.238C40.7295 29.4381 40.6868 28.6931 40.4766 27.6246C40.4513 27.4747 40.426 27.3159 40.4339 27.2847C40.4434 27.2535 40.4181 26.9998 40.3754 26.7311C40.1731 25.5439 40.004 24.1904 39.9882 23.668C39.9787 23.4306 40.004 22.9631 40.0388 22.6381C40.0719 22.3145 40.1225 21.8307 40.1478 21.5695C40.1731 21.3083 40.2411 20.7073 40.2996 20.2398C40.3754 19.5675 40.3754 19.2113 40.2917 18.5776L40.1905 17.7629L40.4592 17.058C40.603 16.6632 40.8133 16.0443 40.9318 15.6733C41.0409 15.3008 41.2606 14.5647 41.4297 14.0349C41.5893 13.5036 41.8343 12.5864 41.9687 11.9928C42.0951 11.3992 42.2216 10.9005 42.239 10.8916C42.5583 10.6631 43.023 10.4805 43.3596 10.4494C44.0931 10.3692 45.5346 10.3781 45.6942 10.4568C45.8807 10.5518 46.0578 10.8768 46.1241 11.2404C46.1494 11.3903 46.2 12.4276 46.2253 13.5362C46.2601 14.6434 46.3186 16.1245 46.3612 16.8205C46.5288 19.3464 46.5462 20.2873 46.4371 21.016C46.3865 21.4033 46.3265 22.1394 46.3107 22.647C46.2933 23.153 46.2427 23.7066 46.1921 23.8728C45.9471 24.6564 45.7543 27.2921 45.8965 27.8145C45.9218 27.9258 45.9977 28.0208 46.0578 28.0208C46.1842 28.0208 46.2095 27.9021 46.4023 26.3423L46.5541 25.1002L46.7564 25.4326C47.0852 25.9787 47.0188 27.2773 46.5462 29.1294Z" fill="#9D6B97"/>
<path d="M75.8509 24.0316C75.598 23.9055 75.285 23.7155 75.1586 23.6116C75.0242 23.5166 74.8725 23.4306 74.8219 23.4306C74.6117 23.4306 74.1312 23.7303 73.3472 24.364C72.892 24.7276 72.2076 25.2426 71.8203 25.5112C71.1881 25.9475 71.0537 26.0811 70.6744 26.6985C70.4294 27.0784 70.1591 27.4435 70.0674 27.5058C69.8809 27.6335 68.9293 27.9421 68.7349 27.9421C68.5832 27.9421 68.237 28.1321 67.9589 28.3696C67.7739 28.5194 67.766 28.5194 67.766 28.3696C67.7739 28.0609 67.9336 25.8362 67.9683 25.6463C68.0015 25.4252 68.237 24.6891 68.3635 24.3878C68.4141 24.2854 68.4646 23.7303 68.4899 23.1605L68.5405 22.1246L68.1865 21.1347C67.9936 20.5886 67.7565 20.0261 67.6554 19.8762C67.453 19.5675 67.4451 19.1163 67.6301 18.6815C67.9178 18.0315 68.373 16.5044 68.4062 16.0844C68.4488 15.7119 68.4141 15.5694 68.2465 15.2696C67.943 14.7383 67.9004 14.4771 68.06 14.0349C68.5152 12.7838 67.2602 11.5327 64.8055 10.8055C63.718 10.4805 63.1538 10.4805 62.2765 10.7892C61.1385 11.1855 61.0215 11.319 61.0215 12.1902C61.0215 12.6888 61.0468 12.7764 61.2396 12.9574C61.3861 13.095 61.4088 13.2454 61.3076 13.4086C61.189 13.6075 61.148 13.9072 61.0974 14.8808C61.0626 15.5546 60.9962 16.2669 60.9535 16.4643C60.903 16.6632 60.8445 16.963 60.8192 17.1381C60.7844 17.3117 60.7433 17.5803 60.718 17.7317C60.6327 18.174 60.2881 19.4889 60.1695 19.7886C60.051 20.0973 60.0257 21.0234 60.119 21.9257C60.2786 23.573 60.2454 24.2379 59.7902 27.2684C59.5705 28.7421 59.5958 29.7394 59.874 30.5378C60.1522 31.3451 60.2628 32.2237 60.1774 33.0474C60.1111 33.7434 60.1269 34.8683 60.2122 35.5406C60.3893 36.8466 60.4398 37.1479 60.5568 37.3527C60.6832 37.5901 61.1479 37.9938 61.2823 37.9938C61.3329 37.9938 61.5352 38.065 61.7375 38.1526C61.9398 38.2401 62.6653 38.4538 63.3482 38.6275C64.3851 38.8887 64.6712 38.9287 65.1438 38.8961C65.844 38.8486 66.1727 38.7462 66.6359 38.4538C67.099 38.16 67.2934 37.9314 67.4783 37.4402C67.6475 36.9965 67.6649 36.9965 68.3382 37.3289C68.8108 37.5664 69.3593 37.5753 69.8477 37.3527C70.4546 37.0766 71.3904 35.9843 71.6686 35.2245C71.7365 35.0256 72.0558 34.3845 72.3767 33.7998C72.6976 33.2136 73.0089 32.6036 73.069 32.4537C73.4136 31.6464 73.7929 31.0528 74.2402 30.6417C74.5105 30.3953 74.9815 29.8418 75.2945 29.4069C75.6059 28.9706 75.9932 28.4408 76.1623 28.2345C76.6254 27.6409 76.9384 26.9923 76.9795 26.5323C77.098 25.3302 76.7013 24.459 75.8509 24.0316ZM76.1544 26.5248C76.1196 27.0784 75.9932 27.301 75.2345 28.2508C74.9057 28.6545 74.5437 29.122 74.4252 29.2793C74.0964 29.7304 73.8277 30.0154 73.4057 30.3404C72.9584 30.6803 72.5537 31.3377 72.1918 32.335C72.0653 32.6838 71.8962 33.1112 71.8124 33.2848C71.727 33.4584 71.5595 33.8473 71.4331 34.156C71.0363 35.1058 70.834 35.4145 70.2097 36.0393C69.7133 36.5379 69.5268 36.664 69.1649 36.7754C68.873 36.8595 68.5837 36.8332 68.2971 36.6967C67.7913 36.4592 66.8888 35.5243 66.7955 35.1607C66.737 34.8995 66.5426 34.6932 66.4667 34.8119C66.4509 34.8446 66.4762 35.0583 66.5426 35.272C66.6027 35.4857 66.6785 35.7855 66.7038 35.9443C66.737 36.1031 66.8635 36.3316 66.9978 36.4592C67.344 36.7828 67.2934 36.854 65.8946 37.9314C65.8013 38.0101 65.6243 38.0739 65.5152 38.0739C65.414 38.0739 65.3034 38.0739 65.2781 38.0813C65.2623 38.0888 65.0932 38.1214 64.9162 38.16C64.7138 38.2001 64.4767 38.2001 64.2997 38.1452C64.1401 38.1051 63.6848 38.0027 63.2802 37.9151C62.4709 37.7415 61.6696 37.4328 61.3756 37.179C61.0468 36.8941 60.9361 36.3405 60.9203 34.7882C60.9109 34.0046 60.9109 32.8975 60.9282 32.335C60.9535 31.354 60.9361 31.2739 60.6753 30.514C60.4051 29.7542 60.3972 29.6755 60.3972 28.5358C60.4051 27.7596 60.4556 27.1734 60.541 26.8335C60.8698 25.5276 61.0041 22.733 60.8271 20.9759C60.7591 20.3674 60.7765 20.2398 60.9788 19.6313C61.0974 19.2588 61.2238 18.8715 61.2396 18.7602C61.2649 18.6489 61.3329 18.3639 61.4008 18.1265C61.4593 17.889 61.5352 17.4943 61.5684 17.2568C61.6032 17.0194 61.6617 16.6943 61.6948 16.5444C61.7628 16.2981 61.8213 15.8395 61.9983 14.0735C62.0236 13.8212 62.0916 13.4962 62.1595 13.3463C62.2765 13.0851 62.2939 13.0762 62.9088 13.0213C63.3387 12.9901 63.8113 13.0138 64.4356 13.0999C65.2955 13.2275 65.5231 13.2186 65.354 13.0613C65.2275 12.9426 63.7275 12.6488 62.8329 12.5701C62.3698 12.53 61.9398 12.4825 61.8893 12.4677C61.8213 12.444 61.7802 12.3015 61.7802 12.1264C61.7802 11.8177 61.7881 11.8103 62.1848 11.7153C62.403 11.6678 62.7159 11.5728 62.8756 11.5179C63.2802 11.3665 64.0721 11.3754 64.6791 11.5253C65.2275 11.6678 65.7175 11.969 66.5268 12.6651C67.1243 13.1801 67.2681 13.4249 67.3108 14.0423C67.3361 14.3109 67.3867 14.6523 67.4278 14.8185C67.5716 15.3008 67.4531 16.3545 67.1338 17.4943C66.6944 19.0763 66.6785 19.5363 66.9978 20.691C67.1496 21.2059 67.3187 21.7521 67.3867 21.902C67.5716 22.322 67.5384 23.3504 67.3013 24.5065C67.1164 25.44 67.0326 26.4774 67.0152 28.2746C67.0073 28.607 66.9725 28.7332 66.8888 28.7332C66.5426 28.7332 65.8693 29.5731 65.5816 30.3716C65.2196 31.354 65.1264 31.9625 65.177 32.9286C65.2117 33.4273 65.2955 34.0521 65.3635 34.3133C65.5231 34.8594 65.7934 35.3818 65.9198 35.3818C66.0969 35.3818 66.0874 35.1206 65.9025 34.4884C65.6496 33.6336 65.6322 32.2638 65.8598 31.5039C66.0115 31.0053 66.5774 29.8818 66.6438 29.9442C66.6612 29.9679 66.5774 30.2617 66.4588 30.6016C66.1222 31.5677 66.0969 32.1851 66.3656 33.1661C66.6438 34.1797 66.7449 34.3934 66.9646 34.3934C67.167 34.3934 67.1591 34.2272 66.9141 33.5297C66.7797 33.1735 66.7623 33.0162 66.8303 32.8173C66.8714 32.6838 66.9314 32.43 66.9646 32.2563C67.1591 30.9029 67.6807 29.8655 68.5405 29.0819C68.9878 28.6782 69.1728 28.5758 69.6881 28.417C70.412 28.2033 70.9352 27.7833 71.3651 27.071C71.6607 26.5887 71.8788 26.375 72.5711 25.9238C72.824 25.7487 73.3377 25.3539 73.7012 25.0289C74.6876 24.1667 74.6528 24.1815 75.1681 24.4189C75.4115 24.5303 75.6391 24.6178 75.6897 24.6178C75.9426 24.6178 76.205 25.6938 76.1544 26.5248Z" fill="black"/>
<path d="M76.1544 26.5249C76.1196 27.0784 75.9932 27.3011 75.2345 28.2509C74.9057 28.6545 74.5437 29.122 74.4252 29.2793C74.0964 29.7305 73.8277 30.0154 73.4057 30.3404C72.9584 30.6803 72.5537 31.3377 72.1918 32.335C72.0653 32.6838 71.8962 33.1112 71.8124 33.2848C71.7271 33.4585 71.5595 33.8473 71.4331 34.156C71.0363 35.1058 70.834 35.4145 70.2097 36.0393C69.7133 36.5379 69.5268 36.6641 69.1649 36.7754C68.873 36.8595 68.5837 36.8333 68.2971 36.6967C67.7913 36.4593 66.8888 35.5243 66.7955 35.1607C66.737 34.8995 66.5426 34.6932 66.4667 34.812C66.4509 34.8446 66.4762 35.0583 66.5426 35.272C66.6027 35.4857 66.6786 35.7855 66.7038 35.9443C66.737 36.1031 66.8635 36.3316 66.9978 36.4593C67.344 36.7828 67.2934 36.854 65.8946 37.9315C65.8013 38.0101 65.6243 38.0739 65.5152 38.0739C65.4141 38.0739 65.3034 38.0739 65.2781 38.0814C65.2623 38.0888 65.0932 38.1214 64.9162 38.16C64.7138 38.2001 64.4767 38.2001 64.2997 38.1452C64.1401 38.1051 63.6849 38.0027 63.2802 37.9151C62.4709 37.7415 61.6696 37.4328 61.3756 37.1791C61.0468 36.8941 60.9362 36.3405 60.9203 34.7882C60.9109 34.0046 60.9109 32.8975 60.9282 32.335C60.9535 31.3541 60.9361 31.2739 60.6753 30.5141C60.4051 29.7542 60.3972 29.6756 60.3972 28.5358C60.4051 27.7596 60.4556 27.1734 60.541 26.8336C60.8698 25.5276 61.0041 22.7331 60.8271 20.9759C60.7591 20.3675 60.7765 20.2398 60.9788 19.6314C61.0974 19.2589 61.2238 18.8715 61.2396 18.7602C61.2649 18.6489 61.3329 18.364 61.4009 18.1265C61.4593 17.889 61.5352 17.4943 61.5684 17.2568C61.6032 17.0194 61.6617 16.6944 61.6948 16.5445C61.7628 16.2981 61.8213 15.8395 61.9983 14.0735C62.0236 13.8212 62.0916 13.4962 62.1596 13.3463C62.2765 13.0851 62.2939 13.0762 62.9088 13.0213C63.3387 12.9901 63.8113 13.0139 64.4356 13.0999C65.2955 13.2276 65.5231 13.2187 65.354 13.0614C65.2275 12.9426 63.7275 12.6488 62.8329 12.5701C62.3698 12.5301 61.9398 12.4826 61.8893 12.4677C61.8213 12.444 61.7802 12.3015 61.7802 12.1264C61.7802 11.8177 61.7881 11.8103 62.1848 11.7153C62.403 11.6678 62.7159 11.5728 62.8756 11.5179C63.2802 11.3665 64.0721 11.3754 64.6791 11.5253C65.2275 11.6678 65.7175 11.9691 66.5268 12.6651C67.1243 13.1801 67.2681 13.425 67.3108 14.0423C67.3361 14.3109 67.3867 14.6523 67.4278 14.8185C67.5716 15.3008 67.4531 16.3545 67.1338 17.4943C66.6944 19.0763 66.6785 19.5364 66.9978 20.691C67.1496 21.206 67.3187 21.7521 67.3867 21.902C67.5716 22.322 67.5384 23.3504 67.3013 24.5065C67.1164 25.44 67.0326 26.4774 67.0152 28.2746C67.0073 28.607 66.9725 28.7332 66.8888 28.7332C66.5426 28.7332 65.8693 29.5732 65.5816 30.3716C65.2196 31.3541 65.1264 31.9625 65.177 32.9287C65.2117 33.4273 65.2955 34.0521 65.3635 34.3133C65.5231 34.8594 65.7934 35.3818 65.9198 35.3818C66.0969 35.3818 66.0874 35.1206 65.9025 34.4884C65.6496 33.6336 65.6322 32.2638 65.8598 31.5039C66.0115 31.0053 66.5774 29.8819 66.6438 29.9442C66.6612 29.9679 66.5774 30.2618 66.4588 30.6016C66.1222 31.5678 66.0969 32.1851 66.3656 33.1661C66.6438 34.1797 66.7449 34.3934 66.9646 34.3934C67.167 34.3934 67.1591 34.2272 66.9141 33.5297C66.7797 33.1735 66.7623 33.0162 66.8303 32.8174C66.8714 32.6838 66.9315 32.43 66.9646 32.2564C67.1591 30.9029 67.6807 29.8655 68.5405 29.0819C68.9878 28.6783 69.1728 28.5759 69.6881 28.4171C70.412 28.2034 70.9352 27.7834 71.3651 27.071C71.6607 26.5887 71.8788 26.375 72.5711 25.9238C72.824 25.7487 73.3377 25.3539 73.7013 25.0289C74.6876 24.1667 74.6528 24.1815 75.1681 24.419C75.4115 24.5303 75.6391 24.6178 75.6897 24.6178C75.9426 24.6178 76.205 25.6938 76.1544 26.5249Z" fill="#9D6B97"/>
<path d="M59.5452 36.0794C59.3524 35.3581 59.2923 34.9069 59.2417 33.736C59.2086 32.9361 59.158 32.1139 59.1327 31.9151C59.0647 31.3303 59.0062 30.1817 58.9478 28.3844C58.9225 27.4673 58.8877 26.6674 58.8719 26.6035C58.6269 25.3688 58.619 24.7366 58.8371 22.4808C58.8877 21.9346 58.9304 20.6524 58.9225 19.6314C58.9051 17.2806 58.8719 17.0906 58.4925 16.9007C58.3566 16.8369 58.1717 16.7819 58.0705 16.7819C57.9614 16.7819 57.9014 16.7255 57.9014 16.6306C57.9014 16.3931 57.1522 15.0471 56.9498 14.9283C56.384 14.5885 55.1875 14.3911 54.7322 14.5647C54.4967 14.6523 54.1427 15.056 54.0162 15.3795C53.9488 15.5536 53.7659 15.6303 53.4677 15.6095C53.0299 15.5784 52.2538 15.7282 52.2538 15.847C52.2538 15.8781 52.1779 15.942 52.0847 15.9894C51.9503 16.0607 51.8824 16.0444 51.7812 15.9494C51.6974 15.8707 51.5362 15.8307 51.3845 15.847C51.0146 15.8781 50.6685 16.3456 50.2132 17.3904L49.8513 18.2452L49.8671 19.5512C49.935 24.2379 49.8924 25.0928 49.5383 26.7549C49.3455 27.6884 49.0926 28.4008 48.6279 29.3268C47.9877 30.6016 47.7933 32.0501 48.0304 33.7998C48.081 34.1234 48.0968 34.8758 48.0715 35.462C48.0383 36.4355 48.0462 36.578 48.2232 37.044C48.4003 37.5189 48.4603 37.5827 48.9914 37.9226C49.6395 38.3426 50.3397 38.5162 51.081 38.4539C51.8318 38.3826 52.3376 37.7415 52.5905 36.5216C52.7343 35.8018 52.7596 35.7069 52.894 35.0019C53.0046 34.4484 53.5689 32.8025 53.7538 32.4849C53.9814 32.0976 54.6311 33.5861 54.7828 34.8684C54.9598 36.3242 55.2048 37.5516 55.3566 37.7015C55.7865 38.1526 57.1174 38.7062 57.767 38.7062C58.8466 38.7062 59.3856 38.3589 59.6306 37.5041L59.7823 36.9728L59.5452 36.0794ZM58.6696 37.7564C58.5257 37.8751 58.3566 37.9152 57.9946 37.9077L57.522 37.8988L57.8603 37.8276C58.0452 37.7964 58.3155 37.7252 58.4499 37.6851C58.8371 37.5753 58.8877 37.5902 58.6696 37.7564ZM58.9383 37.1316C58.8972 37.1716 58.6443 37.274 58.374 37.3616C57.7085 37.5753 56.8313 37.5753 56.3935 37.3616C56.0726 37.2102 56.0647 37.1954 55.9714 36.5929C55.913 36.253 55.8371 35.6045 55.7944 35.1444C55.7185 34.1872 55.7106 34.1798 55.2459 33.4436C54.4619 32.1926 54.168 31.2502 54.1427 29.8819C54.0826 26.8262 53.9988 25.0839 53.9056 25.1165C53.7538 25.164 53.6953 25.7576 53.7032 27.3085C53.7127 29.5331 53.6953 29.9768 53.6021 29.8418C53.561 29.778 53.493 29.5569 53.4677 29.358C53.4093 28.9632 53.3081 28.7495 53.2148 28.8282C53.1137 28.9306 53.1722 29.5168 53.3413 30.0392C53.4424 30.333 53.5183 30.7204 53.5183 30.9029C53.5183 31.3927 53.2986 32.1614 53.0204 32.6749L52.7675 33.1261L52.8181 32.8099C52.8434 32.6363 52.9035 32.295 52.9619 32.0575C53.071 31.544 53.0457 31.2977 52.8782 31.2353C52.7343 31.1789 52.6837 31.2903 52.3977 32.2712C52.2364 32.8174 52.1858 33.1973 52.1779 33.9423C52.1606 35.0257 52.1779 34.9069 51.8824 35.9755C51.6216 36.949 51.3766 37.4952 51.1663 37.559C51.081 37.5827 50.719 37.6228 50.3571 37.6465C49.758 37.6851 49.6821 37.6703 49.5051 37.5115C49.0926 37.1479 49.0072 36.5617 48.8302 32.9999C48.7717 31.8364 48.9155 31.1478 49.4292 30.103C50.0283 28.8994 50.3318 27.9422 50.4835 26.7223C50.5341 26.3349 50.5926 25.9951 50.61 25.9624C50.6432 25.9149 50.8455 22.6381 50.8455 22.2433C50.8455 22.132 50.8123 21.2935 50.7775 20.3823L50.7111 18.7201L51.0304 17.7867C51.2074 17.2806 51.3845 16.8606 51.4098 16.8606C51.4951 16.8606 51.6374 17.6605 51.7053 18.4441C51.7385 18.7676 51.7733 19.1401 51.7891 19.2752C51.8065 19.4013 51.8397 19.7976 51.8745 20.1449C51.9503 20.9848 52.3803 23.0032 52.5146 23.1605C52.7011 23.3742 52.7422 23.1605 52.6253 22.5995C52.5146 22.0845 52.4056 21.1822 52.287 19.9475C52.2617 19.6625 52.2032 19.1327 52.1606 18.7602C52.0689 17.9054 52.0689 17.2405 52.1606 17.0031C52.2965 16.6706 52.6506 16.4169 53.139 16.3145C53.8724 16.1557 53.8645 16.1557 54.1427 17.4305C54.277 18.0553 54.4288 18.8715 54.4714 19.2514C54.5299 19.7338 54.5979 19.9475 54.6737 19.9475C54.7322 19.9475 54.8081 19.8525 54.8334 19.7412C54.9267 19.4088 54.7828 17.0194 54.6564 16.6469C54.6137 16.5207 54.8508 15.7446 55.0025 15.562C55.1543 15.3647 55.7106 15.2934 56.2417 15.3884C56.6116 15.4596 56.6464 15.4834 56.7301 15.7921C56.7728 15.9657 56.8993 16.3056 57.0083 16.5445C57.3039 17.1856 57.3703 17.4468 57.4809 18.3254C57.5315 18.7602 57.59 19.204 57.6074 19.3138C57.6232 19.4251 57.6659 19.8837 57.6912 20.3437C57.7591 21.1985 57.835 21.531 57.9772 21.531C58.0373 21.531 58.0531 20.8186 58.0278 19.5275C57.9867 17.4305 58.0705 17.0906 58.2301 18.6578C58.2981 19.2589 58.306 20.1775 58.2649 21.4271C58.1796 23.8417 58.2143 30.4191 58.3234 31.504C58.3661 31.9625 58.4499 32.9762 58.5004 33.7598C58.5589 34.6309 58.6775 35.5481 58.8039 36.1269C58.913 36.6403 58.9809 37.0915 58.9383 37.1316Z" fill="black"/>
<path d="M58.9382 37.1315C58.8971 37.1716 58.6442 37.274 58.3739 37.3616C57.7085 37.5753 56.8313 37.5753 56.3934 37.3616C56.0726 37.2102 56.0647 37.1954 55.9714 36.5928C55.9129 36.253 55.837 35.6044 55.7944 35.1444C55.7185 34.1871 55.7106 34.1797 55.2459 33.4436C54.4619 32.1925 54.1679 31.2502 54.1426 29.8818C54.0826 26.8261 53.9988 25.0838 53.9055 25.1165C53.7538 25.164 53.6953 25.7576 53.7032 27.3085C53.7127 29.5331 53.6953 29.9768 53.602 29.8418C53.5609 29.778 53.493 29.5568 53.4677 29.358C53.4092 28.9632 53.3081 28.7495 53.2148 28.8282C53.1136 28.9306 53.1721 29.5168 53.3412 30.0392C53.4424 30.333 53.5183 30.7203 53.5183 30.9029C53.5183 31.3926 53.2986 32.1614 53.0204 32.6749L52.7675 33.126L52.8181 32.8099C52.8433 32.6363 52.9034 32.2949 52.9619 32.0575C53.071 31.544 53.0457 31.2977 52.8781 31.2353C52.7343 31.1789 52.6837 31.2902 52.3976 32.2712C52.2364 32.8173 52.1858 33.1973 52.1779 33.9423C52.1605 35.0256 52.1779 34.9069 51.8823 35.9755C51.6215 36.949 51.3765 37.4951 51.1663 37.559C51.081 37.5827 50.719 37.6228 50.357 37.6465C49.758 37.6851 49.6821 37.6703 49.5051 37.5115C49.0925 37.1479 49.0072 36.5617 48.8301 32.9999C48.7717 31.8364 48.9155 31.1478 49.4292 30.103C50.0283 28.8994 50.3317 27.9422 50.4835 26.7222C50.5341 26.3349 50.5925 25.9951 50.6099 25.9624C50.6431 25.9149 50.8454 22.6381 50.8454 22.2433C50.8454 22.132 50.8122 21.2935 50.7775 20.3823L50.7111 18.7201L51.0304 17.7866C51.2074 17.2806 51.3844 16.8606 51.4097 16.8606C51.4951 16.8606 51.6373 17.6605 51.7053 18.4441C51.7385 18.7676 51.7733 19.1401 51.7891 19.2752C51.8065 19.4013 51.8397 19.7976 51.8744 20.1448C51.9503 20.9848 52.3802 23.0032 52.5146 23.1605C52.7011 23.3742 52.7422 23.1605 52.6252 22.5995C52.5146 22.0845 52.4055 21.1822 52.287 19.9474C52.2617 19.6625 52.2032 19.1327 52.1605 18.7602C52.0688 17.9054 52.0688 17.2405 52.1605 17.003C52.2965 16.6706 52.6505 16.4168 53.1389 16.3144C53.8723 16.1556 53.8644 16.1556 54.1426 17.4305C54.277 18.0553 54.4287 18.8715 54.4714 19.2514C54.5299 19.7337 54.5978 19.9474 54.6737 19.9474C54.7322 19.9474 54.8081 19.8525 54.8333 19.7412C54.9266 19.4087 54.7828 17.0194 54.6563 16.6469C54.6136 16.5207 54.8507 15.7445 55.0025 15.562C55.1542 15.3646 55.7106 15.2934 56.2417 15.3884C56.6115 15.4596 56.6463 15.4834 56.7301 15.792C56.7728 15.9657 56.8992 16.3055 57.0083 16.5445C57.3039 17.1856 57.3702 17.4468 57.4809 18.3254C57.5315 18.7602 57.59 19.2039 57.6073 19.3137C57.6231 19.4251 57.6658 19.8836 57.6911 20.3437C57.7591 21.1985 57.8349 21.531 57.9772 21.531C58.0373 21.531 58.0531 20.8186 58.0278 19.5275C57.9867 17.4305 58.0705 17.0906 58.2301 18.6578C58.2981 19.2588 58.306 20.1775 58.2649 21.4271C58.1795 23.8417 58.2143 30.4191 58.3234 31.5039C58.366 31.9625 58.4498 32.9761 58.5004 33.7597C58.5589 34.6309 58.6774 35.548 58.8039 36.1268C58.9129 36.6403 58.9809 37.0915 58.9382 37.1315Z" fill="#9D6B97"/>
<path d="M35.3506 26.4225L35.1404 26.3349L35.191 25.4163C35.2241 24.7276 35.2068 24.3715 35.1056 23.9915C35.0044 23.5805 34.9965 23.3831 35.0724 22.8844C35.1562 22.3383 35.1483 22.2344 34.9792 21.7595C34.878 21.4671 34.701 21.151 34.5666 21.0323C34.3058 20.8023 33.7241 20.5811 33.3606 20.5811C33.2341 20.5811 32.8042 20.4624 32.417 20.311C31.1604 19.8361 30.6799 19.7886 29.4912 20.0261C29.0961 20.1062 28.4891 20.1775 28.143 20.1775C27.4096 20.1849 26.7773 20.3674 25.5966 20.9284C24.7193 21.3321 24.1219 21.4671 21.6261 21.807C19.7372 22.0608 18.1945 22.0771 17.4611 21.8545C16.8131 21.6497 15.4553 21.1659 15.0333 20.9848C14.8404 20.8972 14.537 20.7948 14.3599 20.7548C13.8036 20.6123 12.2103 20.5173 11.4927 20.5811C10.6407 20.6598 9.17391 20.6197 8.81985 20.5099C8.01058 20.2725 6.85672 20.0261 6.56905 20.0261C6.21499 20.0261 5.91151 20.1211 5.54955 20.3437C5.22868 20.5411 4.95049 20.5886 4.61382 20.4862C4.17599 20.3674 3.97367 20.4387 3.42519 20.9136C3.16439 21.1421 2.78504 21.4196 2.59062 21.531C2.3883 21.6408 1.95047 21.9732 1.6217 22.2819C1.29293 22.5832 0.845616 22.9557 0.625909 23.1056C0.382494 23.2643 0.17069 23.4781 0.0948204 23.6517C-0.0822093 24.0479 -0.00633942 24.7366 0.263947 25.2263C0.382494 25.4326 0.516847 25.7249 0.567426 25.8763C0.711263 26.2948 1.34351 27.2209 1.76396 27.6409L2.15279 28.0208H2.73446C3.05375 28.0208 3.57693 27.9807 3.9057 27.9422C4.30244 27.8858 4.81614 27.8858 5.46578 27.9332C7.32775 28.092 7.61542 28.1084 8.78666 28.1158C10.1523 28.1232 12.0238 28.3295 13.3057 28.607C15.1518 29.0107 15.3368 29.0181 20.556 28.9469C22.8321 28.9157 23.3205 28.892 23.9701 28.7495C24.8205 28.5669 24.9817 28.5506 26.7093 28.377C27.3843 28.3132 28.0845 28.2419 28.2694 28.2182C28.4543 28.1944 29.7283 28.1633 31.094 28.1395C32.4596 28.1232 33.7147 28.0846 33.8759 28.052C34.0355 28.0282 34.339 27.9095 34.5492 27.7908C34.761 27.672 35.0471 27.5222 35.1815 27.4509C35.6968 27.1897 35.7884 26.6124 35.3506 26.4225ZM33.9344 27.166C33.8506 27.2135 33.487 27.2446 31.4307 27.3559C30.9422 27.3797 30.5202 27.4198 30.487 27.4435C30.4112 27.4821 28.2014 27.3797 28.2441 27.3396C28.2615 27.3322 28.8432 27.261 29.5339 27.1897C31.026 27.0398 31.3042 26.9834 31.3042 26.8261C31.3042 26.7623 31.271 26.7148 31.2204 26.7148C30.4775 26.7386 26.0518 27.166 25.1919 27.301C24.939 27.3396 24.1803 27.5296 23.5054 27.7121C22.1492 28.092 21.7193 28.1232 20.1766 27.9496C19.7119 27.9021 18.2878 27.8472 17.0154 27.8308C15.0586 27.7997 13.0196 27.6646 12.1249 27.5058C12.008 27.491 11.7029 27.4509 11.45 27.4272C10.4479 27.3322 10.1349 27.2921 9.84884 27.2298C9.28456 27.0947 9.1992 27.0873 4.9173 26.9523C4.22657 26.9285 3.42519 26.9449 3.147 26.9834C2.57324 27.0547 2.1354 26.9285 2.04215 26.651C2.01686 26.5649 1.8825 26.3186 1.74815 26.1138C1.43519 25.6151 1.08113 24.6416 1.08113 24.2854C1.08113 24.0316 1.12381 23.9767 1.49525 23.7541C1.71338 23.6205 1.96628 23.438 2.05163 23.3504C2.19389 23.2005 2.31243 23.1931 3.9136 23.1931C4.84933 23.1931 5.72658 23.1605 5.84512 23.113C6.09802 23.0269 6.04744 22.8607 5.77716 22.8918C5.40571 22.9319 2.68388 22.7731 2.6412 22.7093C2.61591 22.6781 2.84352 22.5357 3.147 22.4006C3.55164 22.2196 3.78715 22.0444 4.04005 21.7447L4.38621 21.3321L4.95049 21.3558C5.45629 21.3796 5.54955 21.3558 5.97157 21.111C6.22447 20.9611 6.47737 20.8334 6.51847 20.826C6.56905 20.8186 7.07485 20.9447 7.64071 21.0946C8.20499 21.246 8.94631 21.4271 9.28456 21.4835C9.78087 21.5784 11.4421 21.6334 13.1365 21.6259C13.508 21.6259 14.401 21.8159 14.7725 21.9732L15.2024 22.1557L14.3173 22.1157C13.8288 22.1008 13.2551 22.0608 13.0354 22.037C12.6734 22.0059 12.6307 22.0133 12.6307 22.1632C12.6307 22.2671 12.7161 22.3531 12.8425 22.4006C13.1966 22.5282 14.8815 22.6945 15.9532 22.7093C16.5001 22.7182 17.1497 22.7657 17.3852 22.8043C17.9843 22.9156 19.6866 22.9557 20.4627 22.8755C22.1824 22.6945 22.7894 22.6143 23.7583 22.4333C24.9311 22.2196 25.3437 22.0919 26.0518 21.7046C26.7694 21.3172 27.5692 21.1184 28.1856 21.1822C28.5144 21.2134 28.919 21.1822 29.349 21.1035C30.3179 20.9136 30.8411 20.9373 31.9617 21.2059C32.5102 21.341 33.0919 21.4508 33.2515 21.4508C33.7067 21.4508 33.8506 21.5695 33.9928 22.037C34.1114 22.4006 34.1114 22.552 34.0276 23.0269C33.9517 23.4692 33.9517 23.6829 34.0355 24.0954C34.162 24.6965 34.0861 27.071 33.9344 27.166Z" fill="black"/>
<path d="M33.9343 27.166C33.8506 27.2135 33.487 27.2446 31.4306 27.3559C30.9422 27.3797 30.5202 27.4197 30.487 27.4435C30.4111 27.4821 28.2014 27.3797 28.2441 27.3396C28.2615 27.3322 28.8432 27.2609 29.5339 27.1897C31.026 27.0398 31.3042 26.9834 31.3042 26.8261C31.3042 26.7623 31.271 26.7148 31.2204 26.7148C30.4775 26.7385 26.0518 27.166 25.1919 27.301C24.939 27.3396 24.1803 27.5296 23.5054 27.7121C22.1492 28.092 21.7193 28.1232 20.1766 27.9496C19.7119 27.9021 18.2878 27.8472 17.0154 27.8308C15.0586 27.7997 13.0196 27.6646 12.1249 27.5058C12.008 27.491 11.7029 27.4509 11.45 27.4272C10.4479 27.3322 10.1349 27.2921 9.84883 27.2298C9.28454 27.0947 9.19919 27.0873 4.91729 26.9523C4.22655 26.9285 3.42518 26.9448 3.14699 26.9834C2.57322 27.0547 2.13539 26.9285 2.04213 26.651C2.01684 26.5649 1.88249 26.3186 1.74814 26.1138C1.43518 25.6151 1.08112 24.6416 1.08112 24.2854C1.08112 24.0316 1.12379 23.9767 1.49524 23.7541C1.71336 23.6205 1.96626 23.438 2.05162 23.3504C2.19387 23.2005 2.31242 23.1931 3.91359 23.1931C4.84932 23.1931 5.72656 23.1604 5.84511 23.113C6.09801 23.0269 6.04743 22.8607 5.77714 22.8918C5.4057 22.9319 2.68387 22.7731 2.64119 22.7093C2.6159 22.6781 2.84351 22.5356 3.14699 22.4006C3.55163 22.2195 3.78714 22.0444 4.04004 21.7446L4.3862 21.3321L4.95048 21.3558C5.45628 21.3796 5.54953 21.3558 5.97156 21.1109C6.22446 20.961 6.47736 20.8334 6.51846 20.826C6.56904 20.8186 7.07483 20.9447 7.6407 21.0946C8.20498 21.246 8.94629 21.427 9.28454 21.4834C9.78086 21.5784 11.4421 21.6333 13.1365 21.6259C13.508 21.6259 14.401 21.8159 14.7725 21.9732L15.2024 22.1557L14.3172 22.1157C13.8288 22.1008 13.2551 22.0607 13.0354 22.037C12.6734 22.0058 12.6307 22.0133 12.6307 22.1631C12.6307 22.267 12.7161 22.3531 12.8425 22.4006C13.1966 22.5282 14.8815 22.6944 15.9532 22.7093C16.5001 22.7182 17.1497 22.7657 17.3852 22.8043C17.9843 22.9156 19.6866 22.9556 20.4627 22.8755C22.1824 22.6944 22.7894 22.6143 23.7583 22.4332C24.9311 22.2195 25.3437 22.0919 26.0518 21.7046C26.7694 21.3172 27.5692 21.1184 28.1856 21.1822C28.5144 21.2133 28.919 21.1822 29.349 21.1035C30.3179 20.9136 30.8411 20.9373 31.9617 21.2059C32.5102 21.341 33.0919 21.4508 33.2515 21.4508C33.7067 21.4508 33.8506 21.5695 33.9928 22.037C34.1114 22.4006 34.1114 22.552 34.0276 23.0269C33.9517 23.4691 33.9517 23.6828 34.0355 24.0954C34.162 24.6965 34.0861 27.071 33.9343 27.166Z" fill="#9D6B97"/>
<path d="M35.2747 32.1762C34.878 30.1742 34.1873 29.1843 32.9401 28.8608C32.3838 28.7094 32.1135 28.7094 31.5571 28.8682C30.5629 29.1368 29.9638 29.2081 28.3121 29.2556C27.359 29.2882 26.2873 29.3505 25.9253 29.4069C25.2346 29.5019 19.595 29.5093 17.0565 29.4143C16.3657 29.3906 14.8657 29.3505 13.7277 29.3268C12.5896 29.303 11.5512 29.2719 11.4089 29.2556C11.273 29.2407 10.911 29.2006 10.6075 29.1695C10.3041 29.1457 9.64652 29.0656 9.13282 29.0033C8.62702 28.9394 7.64861 28.8608 6.95788 28.837C5.75187 28.7896 5.70129 28.797 5.137 29.0033C4.65649 29.1769 4.38621 29.3594 3.43309 30.1905C2.3962 31.0839 1.75605 31.7488 1.51106 32.1925C1.38461 32.43 1.39409 32.7862 1.54583 32.9761C1.61222 33.0711 1.64699 33.1661 1.61222 33.1898C1.58693 33.221 1.69757 33.3798 1.86512 33.5534C2.20337 33.9022 2.51475 34.5121 2.51475 34.8119C2.51475 35.1444 2.902 35.6593 3.49316 36.0942C3.9057 36.4118 4.26766 36.5854 4.94259 36.8229C6.84724 37.4714 7.1602 37.5115 13.1792 37.9626C13.4574 37.9789 14.0817 38.0339 14.5702 38.0813C15.4727 38.1763 16.9727 38.1288 17.5212 37.9938C17.9764 37.884 18.5992 37.8602 19.2061 37.9225C20.3189 38.0413 23.3284 38.2238 24.3068 38.2238C24.9817 38.2238 25.4701 38.1837 25.7815 38.1051C26.2541 37.9789 27.1393 37.6539 27.4016 37.5189C27.6451 37.3927 27.8474 37.4239 28.7499 37.7652C29.2304 37.9463 29.8453 38.1526 30.1235 38.2312C30.7731 38.4212 32.5434 38.6587 32.8137 38.5963C32.9307 38.5726 33.2594 38.2639 33.623 37.8365C33.9517 37.4476 34.2552 37.1241 34.2884 37.1241C34.4402 37.1241 34.8954 36.158 34.9459 35.7617C34.9712 35.5332 35.1056 35.042 35.2415 34.6695C35.5197 33.9096 35.5276 33.4748 35.2747 32.1762ZM34.1793 34.3533C34.0687 34.6383 33.9012 35.0657 33.8079 35.3032C33.7146 35.5406 33.5629 35.9992 33.4617 36.3079C33.3195 36.759 33.1836 36.9727 32.8801 37.2903L32.4849 37.694L31.2789 37.5189C30.2088 37.369 29.9812 37.3052 29.213 36.9653C28.742 36.7516 27.8822 36.4266 27.3005 36.2455C26.3126 35.928 26.1782 35.9131 25.1082 35.8805C23.7931 35.8419 23.0423 35.9205 23.0423 36.0942C23.0423 36.1892 23.2699 36.2218 24.3068 36.2604C25.0402 36.293 25.7657 36.3717 26.0344 36.4429C26.2873 36.5067 26.5829 36.5854 26.6935 36.6166C26.8706 36.6641 26.8453 36.6967 26.4311 36.8867C25.791 37.2028 24.9058 37.4402 24.4158 37.4402C24.1803 37.4402 23.6666 37.3853 23.262 37.3289C21.3052 37.0202 19.0971 36.949 17.6476 37.1553C16.9474 37.2503 15.0175 37.2666 14.3599 37.1716C14.224 37.1553 13.7688 37.1152 13.3483 37.084C12.9342 37.0603 12.0238 36.9653 11.3236 36.8867C10.6328 36.7991 9.54536 36.6804 8.92101 36.6166C7.421 36.4593 6.4426 36.2841 5.47368 35.9992C4.44469 35.6994 4.20128 35.5718 3.6607 35.0019C3.52635 34.8594 3.11381 33.9022 3.10432 33.7286C3.10432 33.7122 3.37461 33.7196 3.71128 33.7434C4.58853 33.8146 4.97578 33.5623 4.1665 33.451C3.82193 33.4035 2.86091 33.0474 2.36301 32.7862C2.17808 32.6838 2.18598 32.6674 2.91149 31.915C4.17599 30.6016 4.95997 29.9293 5.38042 29.8017C5.59222 29.7394 5.83564 29.7067 5.92889 29.7156C6.02215 29.7305 6.55324 29.8017 7.10962 29.8729C7.666 29.9442 8.34883 30.0391 8.62702 30.0718C8.90521 30.1104 10.4985 30.1341 12.1676 30.1193C15.2356 30.0866 15.9611 30.1267 17.7314 30.4191C18.1028 30.4829 18.9706 30.5378 19.6708 30.5467C20.3616 30.5541 20.9511 30.5779 20.9764 30.5853C21.027 30.6179 22.3342 30.6966 23.8437 30.7604C24.694 30.7916 25.1587 30.7678 25.6977 30.6728C26.6082 30.514 27.5866 30.4042 28.4385 30.3642C29.8548 30.2929 30.8996 30.143 31.6756 29.8818C32.1641 29.723 32.3996 29.7305 32.839 29.9293C33.3353 30.1504 33.9091 31.0127 34.0434 31.7414C34.1035 32.0263 34.1952 32.4775 34.2631 32.7461C34.4228 33.4273 34.407 33.7597 34.1793 34.3533Z" fill="black"/>
<path d="M34.1793 34.3534C34.0687 34.6383 33.9012 35.0657 33.8079 35.3032C33.7146 35.5406 33.5629 35.9992 33.4617 36.3079C33.3195 36.759 33.1836 36.9727 32.8801 37.2903L32.4849 37.694L31.2789 37.5189C30.2088 37.369 29.9812 37.3052 29.213 36.9653C28.742 36.7516 27.8821 36.4266 27.3005 36.2455C26.3126 35.928 26.1782 35.9131 25.1082 35.8805C23.7931 35.8419 23.0423 35.9205 23.0423 36.0942C23.0423 36.1892 23.2699 36.2218 24.3068 36.2604C25.0402 36.293 25.7657 36.3717 26.0344 36.4429C26.2873 36.5067 26.5829 36.5854 26.6935 36.6166C26.8706 36.6641 26.8453 36.6967 26.4311 36.8867C25.791 37.2028 24.9058 37.4402 24.4158 37.4402C24.1803 37.4402 23.6666 37.3853 23.262 37.3289C21.3052 37.0202 19.0971 36.949 17.6476 37.1553C16.9474 37.2503 15.0175 37.2666 14.3599 37.1716C14.224 37.1553 13.7688 37.1152 13.3483 37.0841C12.9342 37.0603 12.0238 36.9653 11.3236 36.8867C10.6328 36.7991 9.54535 36.6804 8.92101 36.6166C7.421 36.4593 6.44259 36.2841 5.47367 35.9992C4.44468 35.6994 4.20127 35.5718 3.6607 35.0019C3.52634 34.8594 3.1138 33.9022 3.10432 33.7286C3.10432 33.7122 3.3746 33.7197 3.71128 33.7434C4.58852 33.8146 4.97577 33.5623 4.1665 33.451C3.82192 33.4035 2.8609 33.0474 2.36301 32.7862C2.17807 32.6838 2.18598 32.6674 2.91148 31.915C4.17598 30.6016 4.95997 29.9293 5.38041 29.8017C5.59222 29.7394 5.83563 29.7067 5.92889 29.7156C6.02215 29.7305 6.55323 29.8017 7.10961 29.8729C7.66599 29.9442 8.34882 30.0391 8.62701 30.0718C8.9052 30.1104 10.4985 30.1341 12.1676 30.1193C15.2356 30.0866 15.9611 30.1267 17.7314 30.4191C18.1028 30.4829 18.9706 30.5378 19.6708 30.5467C20.3615 30.5541 20.9511 30.5779 20.9764 30.5853C21.027 30.6179 22.3342 30.6966 23.8437 30.7604C24.694 30.7916 25.1587 30.7678 25.6977 30.6728C26.6082 30.5141 27.5866 30.4042 28.4385 30.3642C29.8548 30.2929 30.8996 30.143 31.6756 29.8818C32.1641 29.723 32.3996 29.7305 32.839 29.9293C33.3353 30.1505 33.9091 31.0127 34.0434 31.7414C34.1035 32.0263 34.1952 32.4775 34.2631 32.7461C34.4228 33.4273 34.407 33.7597 34.1793 34.3534Z" fill="#9D6B97"/>
</g>
<defs>
<clipPath id="clip0_146_1219">
<rect width="77" height="39" fill="white"/>
</clipPath>
</defs>
</svg>
