<svg width="70" height="41" viewBox="0 0 70 41" fill="none" xmlns="http://www.w3.org/2000/svg">
<g clip-path="url(#clip0_8_2)">
<path d="M30.5243 0.569628C30.3035 0.466399 29.1141 0.0811374 28.9081 0.0442702C28.6094 -0.00734388 28.2735 -0.012874 28.0323 0.0239932C27.9005 0.0442702 27.5294 0.195426 27.2028 0.355798C26.7167 0.600965 26.5367 0.663639 26.2064 0.700506C25.273 0.814794 24.8648 1.16503 24.6959 1.98717C24.5327 2.78535 24.7442 3.75495 25.2304 4.48861C25.3677 4.69875 25.4771 4.79645 25.6608 4.87572C25.7982 4.93839 25.9188 4.99922 25.9336 5.02134C26.045 5.18171 26.8892 5.39554 27.3977 5.39186C27.5962 5.39186 27.8708 5.34393 28.075 5.27572C28.3793 5.17803 28.4683 5.10982 28.8562 4.7135C29.103 4.46833 29.333 4.19183 29.3813 4.10888C29.4277 4.0204 29.5743 3.80104 29.706 3.61301C30.3777 2.68027 30.9177 1.6185 30.9177 1.22218C30.9177 0.945673 30.7544 0.680229 30.5243 0.569628ZM29.7376 1.93556C29.591 2.14386 29.4481 2.36322 29.4184 2.42589C29.3071 2.6176 28.6409 3.41577 28.2327 3.84343L27.8282 4.26556L27.0674 4.27662C26.2231 4.29137 26.2955 4.32271 26.2175 3.90058C26.1971 3.78629 26.1748 3.66647 26.1656 3.64066C25.9819 2.91069 25.9559 2.64894 26.019 2.25446C26.0542 2.04984 26.1915 1.94662 26.4328 1.94662C26.8521 1.94662 27.4608 1.67564 27.9915 1.25351C28.1696 1.10789 28.4201 0.96042 28.5518 0.925396C28.8933 0.825855 29.6374 0.868252 29.9472 1.00282C30.079 1.05996 30.1829 1.12817 30.1829 1.14844C30.1829 1.22771 30.0048 1.54476 29.7376 1.93556Z" fill="black"/>
<path d="M30.1829 1.14844C30.1829 1.22771 30.0048 1.54476 29.7376 1.93556C29.591 2.14386 29.4481 2.36322 29.4184 2.42589C29.3071 2.6176 28.6409 3.41577 28.2327 3.84343L27.8282 4.26556L27.0674 4.27662C26.2231 4.29137 26.2954 4.32271 26.2175 3.90058C26.1971 3.78629 26.1748 3.66647 26.1656 3.64066C25.9819 2.91069 25.9559 2.64894 26.019 2.25446C26.0542 2.04984 26.1915 1.94662 26.4328 1.94662C26.8521 1.94662 27.4608 1.67564 27.9915 1.25351C28.1696 1.10789 28.4201 0.960419 28.5518 0.925395C28.8933 0.825853 29.6374 0.868251 29.9472 1.00282C30.079 1.05996 30.1829 1.12816 30.1829 1.14844Z" fill="#514B71"/>
<path d="M69.8014 25.5803C69.7439 25.466 69.6604 25.2522 69.6122 25.1102C69.5658 24.9646 69.4767 24.7508 69.4229 24.631C69.3654 24.5075 69.319 24.3913 69.319 24.3766C69.319 24.36 69.1872 24.0853 69.0295 23.7664C68.5638 22.8079 68.0219 22.0521 67.2463 21.2705C66.4447 20.4576 66.3445 20.2954 66.1125 19.3221C66.0235 18.9516 65.862 18.4041 65.747 18.1018C65.6245 17.7995 65.4891 17.4032 65.4315 17.2207C65.3796 17.0326 65.3109 16.8612 65.2794 16.8299C65.2534 16.8041 65.2274 16.7414 65.2274 16.6898C65.2274 16.5534 64.8693 15.9027 64.6912 15.7202C64.6021 15.6317 64.4722 15.4547 64.3924 15.3294C64.0102 14.6934 62.3735 13.4326 61.3864 13.0196C60.3268 12.5717 60.0336 12.5367 58.3024 12.6602C57.3579 12.7284 56.6602 12.4777 56.1295 11.8786C55.673 11.3625 55.4541 11.1652 54.8974 10.7689C54.5782 10.5403 54.2888 10.2749 54.0791 10.0242C53.669 9.52832 53.3554 9.36242 52.5204 9.19467C52.1957 9.132 51.9229 9.06932 51.9118 9.06564C51.9062 9.05458 51.8765 8.87761 51.8487 8.66378C51.7336 7.814 51.4608 7.2573 50.8949 6.70982C50.5108 6.33931 50.3753 6.2453 49.7519 5.94299C48.6589 5.40657 48.1189 5.25541 46.4452 5.01578C45.6065 4.89596 44.714 4.90702 44.1109 5.04711C43.9383 5.08951 43.6192 5.15587 43.4039 5.2038C43.1887 5.24988 42.7062 5.39551 42.3277 5.52639C41.4054 5.84897 40.9954 5.94852 40.461 5.99091C39.5796 6.05727 38.9338 5.83423 38.2101 5.2038C38.1359 5.14112 37.8539 4.93835 37.5755 4.75033C36.9984 4.36507 36.7034 4.27106 35.8127 4.19179C35.5028 4.16046 35.0928 4.0941 34.9053 4.03511C34.4897 3.90607 34.1538 3.90607 33.6714 4.03142C33.4728 4.08304 33.1166 4.19179 32.8846 4.26553C32.6545 4.34295 32.1925 4.43696 31.8622 4.47383C30.7284 4.60839 30.0307 4.93835 29.3813 5.63514C29.1178 5.91165 28.9935 6.18262 28.8097 6.84439C28.7151 7.1891 28.6093 7.47113 28.5778 7.47113C28.5203 7.47113 28.0211 7.06375 27.9859 6.98633C27.9376 6.87573 26.3901 5.92271 25.9651 5.74022C25.7035 5.63146 25.414 5.50611 25.3213 5.45818C24.8741 5.25541 23.5213 5.13006 22.0777 5.1614C20.8512 5.18721 20.84 5.18721 18.9306 5.78261C18.2329 6.00013 17.6095 6.3559 16.921 6.92918C16.8171 7.01766 16.5648 7.20384 16.3606 7.34578C16.1602 7.48588 15.945 7.64256 15.893 7.68865C15.8355 7.7421 15.7669 7.78266 15.7409 7.78266C15.7149 7.78266 15.4625 8.01308 15.1805 8.28774C14.5867 8.87761 14.3826 9.23707 14.0208 10.2896C13.9001 10.6436 13.7795 10.9625 13.7573 10.9938C13.7313 11.0251 13.5847 11.3016 13.427 11.6076C13.2711 11.9155 13.1189 12.1975 13.0874 12.2288C13.0596 12.2657 13.0187 12.3579 13.002 12.4371C12.9816 12.5146 12.9241 12.5975 12.8777 12.6252C12.7664 12.6823 12.1745 12.6454 11.6642 12.5514C10.6789 12.3689 10.6046 12.3689 9.98115 12.4464C9.18325 12.5514 9.03666 12.5883 8.69523 12.7966C8.11258 13.1395 7.10685 14.2916 6.57616 15.2096C6.42957 15.4639 6.26071 15.7257 6.20875 15.7828C6.03062 15.9745 5.73187 16.6418 5.6428 17.0382C5.5426 17.5082 5.48507 17.5598 5.00262 17.5967C4.57769 17.6317 3.7167 17.9082 3.04498 18.2271C2.47903 18.4981 1.94462 18.9147 1.55124 19.3884C1.38238 19.5931 0.931475 20.4097 0.85354 20.6456C0.821996 20.7488 0.736639 20.9516 0.675405 21.0991C0.612315 21.2392 0.495413 21.536 0.423045 21.7498C0.348822 21.9636 0.239343 22.277 0.176253 22.4429C0.0983183 22.6678 0.0612067 22.9424 0.024095 23.5637C-0.0185834 24.371 -0.0130166 24.3876 0.129863 24.8245C0.411912 25.7056 0.606748 26.0227 1.23579 26.6273C2.02256 27.3942 2.68871 27.7223 3.84845 27.9306C4.38286 28.0301 5.94155 27.9933 6.5075 27.8734C7.68765 27.6283 8.62843 26.9868 9.20923 26.0393C9.35396 25.8033 9.47829 25.6172 9.48757 25.6172C9.4987 25.6264 9.53024 25.8402 9.56179 26.102C9.59334 26.3563 9.6657 26.8264 9.71951 27.1435C9.77704 27.4568 9.84384 27.8937 9.87538 28.1075C9.95517 28.6753 10.1129 29.103 10.4692 29.7242C10.8421 30.3638 11.0982 30.6827 11.5918 31.0938C12.2097 31.6099 13.2488 32.209 14.236 32.6164C14.4253 32.6938 14.5978 32.7768 14.6238 32.8026C14.6554 32.8302 14.7389 32.8505 14.8131 32.8505C14.891 32.8505 15.1953 32.9187 15.4997 33.0017C16.0025 33.1418 16.0934 33.1528 16.7281 33.1307C17.1047 33.1159 17.5148 33.1307 17.6447 33.1583C18.2181 33.2819 18.4111 33.3353 18.5113 33.4017C18.5688 33.4441 18.669 33.4754 18.7321 33.4754C18.7952 33.4754 18.9251 33.5067 19.0197 33.5491C19.2869 33.6579 19.5541 33.7353 19.6803 33.7353C19.8547 33.7353 20.1943 33.9344 20.3576 34.1261C20.7138 34.5538 20.7825 34.7215 20.9495 35.6377C21.072 36.2902 21.1443 36.5077 21.3911 36.9925C21.4969 37.1916 21.5804 37.3796 21.5804 37.4147C21.5804 37.4515 21.6583 37.5713 21.753 37.6856C21.842 37.8055 21.9942 37.999 22.0777 38.1188C22.3356 38.4727 23.0853 39.0682 23.4415 39.1917C24.2654 39.4848 25.0949 39.5788 26.8002 39.5622C27.5071 39.5566 28.049 39.5788 28.3106 39.6249C28.5889 39.6728 28.871 39.6765 29.2031 39.6507C29.8953 39.599 30.0103 39.6101 30.3926 39.776C30.5818 39.859 30.8657 39.9438 31.0235 39.964C31.8306 40.0636 32.25 40.0728 32.9384 40.0267C33.2576 40.0009 33.7141 39.9751 33.9608 39.964C35.7645 39.8811 37.0968 39.6304 37.6219 39.2709C37.7277 39.1972 37.9689 39.0368 38.1582 38.917C38.3456 38.7916 38.5293 38.6608 38.5664 38.6239C38.8911 38.2903 39.1008 38.0414 39.1286 37.9566C39.1491 37.8995 39.1806 37.8534 39.201 37.8534C39.227 37.8534 39.3123 37.7538 39.3903 37.6285C39.548 37.3944 40.0713 36.8635 40.1511 36.8635C40.1975 36.8635 40.5129 37.0239 41.0696 37.3317C41.2422 37.4257 41.578 37.6395 41.8137 37.7962C42.0549 37.9566 42.491 38.2497 42.7841 38.4469C43.1775 38.7087 43.5301 39.0147 44.0701 39.5622C44.5581 40.058 44.8884 40.3493 45.0405 40.4175C45.4488 40.6055 45.7902 40.6977 45.9999 40.6829C46.1149 40.6719 46.8442 40.6571 47.6217 40.6405C49.2156 40.6147 49.8094 40.5576 50.1916 40.3917C50.5702 40.235 51.1788 39.9069 51.2994 39.7963C51.3569 39.7447 51.498 39.6414 51.613 39.5677C51.7281 39.4903 51.9433 39.3225 52.0862 39.188C52.2328 39.0571 52.3942 38.9317 52.4536 38.917C52.5427 38.8857 52.9676 38.5096 53.3498 38.1244C53.4129 38.0617 53.5484 37.8479 53.6541 37.6543C53.7581 37.4626 53.875 37.2488 53.9158 37.175C54.1422 36.7695 54.3203 36.2423 54.452 35.6119C54.5467 35.1436 54.6562 34.9759 54.8399 35.0238C55.1071 35.0902 56.0033 34.7529 56.4338 34.4192C56.7697 34.163 57.5472 33.433 58.449 32.5371C59.3044 31.6873 59.6811 31.1196 59.8759 30.3859C59.9279 30.1979 59.965 30.1463 60.0281 30.161C60.1951 30.2127 60.9614 30.2661 61.3288 30.2495C61.7074 30.2385 61.7111 30.2385 62.0117 30.4634C62.3772 30.7399 63.0081 31.0422 63.5741 31.2136C63.91 31.3187 64.1048 31.3445 64.5446 31.3445C65.9288 31.3389 67.0051 31.1196 67.6657 30.703C67.8401 30.5979 68.0702 30.4578 68.1796 30.4007C68.291 30.338 68.3893 30.2606 68.406 30.2182C68.4209 30.1758 68.5155 30.0984 68.6157 30.0412C68.7159 29.9841 68.8105 29.8901 68.831 29.844C68.8514 29.7905 69.0035 29.5822 69.1724 29.3739C69.3394 29.1712 69.4767 28.9831 69.4767 28.9629C69.4767 28.926 69.6437 28.5352 69.7383 28.3582C69.8534 28.1444 70 27.4034 70 27.0292C70.0055 26.4448 69.9165 25.8199 69.8014 25.5803ZM68.3634 26.8614C68.2483 27.4034 67.9867 27.9361 67.6137 28.3951C67.4467 28.5923 66.8473 29.0403 66.4651 29.2596C66.3538 29.3223 65.8824 29.4735 65.6468 29.5196C64.9862 29.6615 64.7858 29.6818 64.2031 29.6873C63.6576 29.6928 63.485 29.6652 62.9191 29.5251C62.5572 29.4311 62.1954 29.3223 62.1045 29.2854C62.021 29.243 61.7018 29.1767 61.3975 29.1232C61.0932 29.0771 60.7889 29.0311 60.7146 29.0145C60.6423 29.0034 60.3008 28.9831 59.9539 28.9684C59.6087 28.9518 59.1263 28.9002 58.885 28.8523C58.4026 28.7582 58.2764 28.6698 57.8199 28.1075C57.6678 27.9195 57.614 27.8845 57.562 27.9361C57.4896 28.008 57.536 28.1333 57.8088 28.5721L57.9498 28.8006L57.5936 28.7693C57.3412 28.7435 57.2057 28.7066 57.1222 28.6292C57.0591 28.5721 56.9589 28.5241 56.8959 28.5241C56.7956 28.5241 56.7808 28.5555 56.7808 28.7122C56.7808 29.1546 57.5305 29.4937 58.0927 29.2965C58.2541 29.243 58.2764 29.2486 58.4063 29.3942C58.5529 29.5564 59.0947 29.9362 59.2617 29.9988C59.3564 30.0357 59.3508 30.0468 59.2413 30.2292C58.9834 30.6514 58.4601 31.1454 58.0927 31.3224C57.9925 31.3703 57.8348 31.4643 57.7457 31.5325C57.6566 31.5933 57.5564 31.6523 57.5249 31.6523C57.4414 31.6523 57.0963 31.8643 57.0963 31.9178C57.0963 31.9436 57.0591 31.9638 57.022 31.9638C56.9794 31.9638 56.8754 32.0265 56.7956 32.1003C56.3447 32.5113 56.1833 32.6791 56.0349 32.8966C55.7101 33.3722 55.3427 33.7888 55.2481 33.7888C55.1961 33.7888 54.9809 33.8349 54.7712 33.892C54.2257 34.0487 53.5391 34.0432 53.2756 33.8828C53.1717 33.8201 53.0511 33.7353 53.0084 33.6948C52.962 33.6468 52.8785 33.6321 52.7727 33.6524C52.5 33.7095 52.474 33.7777 52.5946 34.0911C52.7041 34.3879 53.0195 34.7307 53.2719 34.8358C53.4185 34.8929 53.4704 35.0017 53.3758 35.0607C53.3498 35.0754 53.3127 35.1529 53.2979 35.2321C53.2496 35.4404 53.0771 35.8054 52.7208 36.4672C52.474 36.9262 51.9656 37.411 51.3143 37.8018C50.5015 38.2903 50.1972 38.4525 49.7463 38.6294C49.3566 38.7806 49.3158 38.7861 48.2247 38.8175C47.6049 38.8322 46.9388 38.8691 46.7347 38.8894C46.5343 38.917 46.3097 38.9373 46.2355 38.9428C46.1632 38.9428 45.9943 38.9576 45.8588 38.9797C45.6009 39.0092 45.4543 38.9428 45.1611 38.6718C44.9459 38.4672 44.3892 38.0727 44.1907 37.9787C44.148 37.9566 44.1016 37.9253 44.0849 37.905C44.0701 37.8903 43.9754 37.8331 43.8752 37.7796C43.519 37.6027 42.7693 37.1437 42.2868 36.8156C42.1755 36.7437 42.0493 36.6552 41.9974 36.6275C41.951 36.5981 41.7933 36.5077 41.6467 36.4193C41.5038 36.3363 41.3108 36.2165 41.2217 36.1483C41.1327 36.0819 41.038 36.0285 41.0121 36.0285C40.9378 36.0285 40.6391 35.7741 40.7077 35.7685C40.743 35.7685 40.8376 35.7114 40.9174 35.6432C41.0009 35.5713 41.1271 35.4718 41.1902 35.4201C41.3424 35.3003 41.4092 34.8874 41.2941 34.7934C41.1995 34.7105 40.6762 34.6902 40.5445 34.7621C40.4869 34.7934 40.2197 34.8561 39.9507 34.904C39.6835 34.9556 39.2808 35.0552 39.06 35.1271C38.4569 35.3317 37.8947 35.3206 37.3696 35.1012C36.9669 34.9298 36.8147 34.939 36.9298 35.1326C37.0077 35.2635 37.7054 35.6432 38.0951 35.7741C38.4198 35.8828 38.4254 35.8884 38.3363 35.9768C38.199 36.1022 36.9353 37.2432 36.8723 37.2948C36.6719 37.4571 36.2265 37.6967 36.1226 37.6967C36.0539 37.6967 35.9537 37.7225 35.8907 37.7538C35.7181 37.8479 34.7847 37.9787 33.8551 38.0414C33.5823 38.0561 33.3003 38.0764 33.226 38.082C33.1518 38.0875 32.9904 38.1244 32.8642 38.1612C32.6174 38.2276 32.1721 38.2589 30.7711 38.2903C30.0214 38.3124 29.8637 38.3327 29.4703 38.458C29.051 38.5889 28.9879 38.5926 28.4887 38.5575C28.1956 38.5299 27.3865 38.5096 26.6944 38.5041C26.0023 38.4986 25.3157 38.4672 25.1691 38.4377C24.7961 38.3585 24.3656 38.1815 24.2135 38.0451C23.7626 37.6506 23.3636 37.1971 23.3636 37.0773C23.3636 37.0497 23.3117 36.9612 23.243 36.8782C23.1743 36.8008 23.0908 36.6497 23.0482 36.5501C23.0129 36.4506 22.9591 36.3418 22.9387 36.316C22.9183 36.2847 22.8867 36.2017 22.87 36.1225C22.8608 36.0506 22.8236 35.94 22.7977 35.8884C22.7717 35.8367 22.7346 35.6745 22.7123 35.5344C22.6492 34.9925 22.614 34.7989 22.5713 34.7215C22.5509 34.6736 22.5138 34.5593 22.4971 34.4598C22.4822 34.3621 22.408 34.174 22.3412 34.0376C22.267 33.9031 22.2094 33.7353 22.2094 33.669C22.2094 33.6026 22.189 33.527 22.1631 33.5012C22.0573 33.398 22.0424 32.7086 22.1352 32.2145C22.2725 31.4643 22.267 31.3906 22.1204 31.3334C22.0517 31.3076 21.9478 31.2873 21.8903 31.2873C21.727 31.2873 21.4227 31.656 21.2278 32.1003C21.1295 32.3233 21.0349 32.5224 21.0237 32.5316C21.0126 32.5427 20.9606 32.5169 20.9031 32.4652C20.7936 32.3602 20.159 32.1721 19.9271 32.1721C19.8436 32.1721 19.6599 32.1353 19.5244 32.0947C19.3815 32.0523 19.1607 31.9804 19.0253 31.938C18.8842 31.8956 18.7414 31.8606 18.7005 31.8606C18.6597 31.8606 18.5057 31.8035 18.3591 31.7353C17.8859 31.5104 16.9786 31.3389 16.3031 31.3389C16.0025 31.3389 15.3475 31.2081 15.1007 31.1048C15.0172 31.068 14.8595 31.02 14.7593 30.9998C14.6609 30.9795 14.5459 30.9426 14.4976 30.9168C14.455 30.891 14.3251 30.8394 14.21 30.797C13.6849 30.609 13.5216 30.5408 13.1505 30.3491C12.9352 30.2348 12.7256 30.1408 12.6884 30.1408C12.6513 30.1408 12.5938 30.1094 12.5623 30.067C12.5252 30.0246 12.425 29.973 12.3415 29.9583C12.258 29.9362 12.1578 29.8845 12.1262 29.8329C12.0891 29.785 11.9685 29.702 11.8646 29.656C11.7588 29.608 11.5343 29.4163 11.3598 29.2283C10.9776 28.8117 10.8997 28.5868 10.9516 28.0135C10.972 27.7942 10.9887 27.5822 10.9887 27.5453C10.9887 27.0605 10.972 26.8412 10.9312 26.6218C10.9052 26.4762 10.8737 26.2789 10.857 26.1794C10.8106 25.8402 10.7791 25.7517 10.4636 25.0586C10.3541 24.8135 10.2484 24.6678 10.1482 24.6107C10.0016 24.5277 9.996 24.5167 10.0238 24.1775C10.0554 23.8438 10.0498 23.8346 9.90693 23.783C9.82899 23.7517 9.71951 23.7406 9.6657 23.7554C9.61375 23.7775 9.40963 24.0263 9.22036 24.3194C8.62843 25.2153 8.31855 25.5637 7.78229 25.9287C7.16438 26.3508 6.72275 26.4614 5.63167 26.4504C4.79851 26.4448 4.32534 26.408 4.07854 26.3305C3.98948 26.3047 3.86886 26.2734 3.81134 26.2623C3.75382 26.2476 3.50146 26.1536 3.26023 26.0485C2.54212 25.737 2.07451 25.2319 1.89081 24.5646C1.82401 24.3139 1.80731 23.4752 1.8704 23.313C1.89638 23.2411 1.92792 23.0844 1.93906 22.9646C1.94462 22.8447 1.99101 22.6715 2.03926 22.583C2.12833 22.4171 2.15987 22.3175 2.20626 22.0466C2.22296 21.9692 2.25451 21.9065 2.28048 21.9065C2.30646 21.9065 2.35285 21.8014 2.3844 21.6724C2.41594 21.5415 2.46419 21.4364 2.49016 21.4364C2.51614 21.4364 2.53655 21.3793 2.53655 21.3074C2.53655 21.1913 2.73139 20.7175 2.80376 20.6548C2.82046 20.6401 2.852 20.5719 2.86685 20.4982C2.89839 20.3783 3.33445 19.8364 3.66475 19.4991C3.73897 19.4253 3.88556 19.3166 3.99504 19.2631C4.45708 19.0235 4.76696 18.8576 4.79294 18.8318C4.83377 18.7838 5.38116 18.5294 5.51105 18.4926C5.66321 18.4502 6.15123 18.1165 6.27184 17.9764C6.53905 17.6594 7.12727 16.2879 7.26272 15.6575C7.34251 15.2814 7.67281 14.8188 8.11258 14.4593C8.82141 13.886 9.2148 13.7404 10.3003 13.6464C10.6269 13.615 11.1149 13.521 11.692 13.3754C11.7495 13.3644 12.0371 13.3385 12.3303 13.322C12.8462 13.2961 12.8722 13.2961 13.0243 13.4215C13.3917 13.7349 13.8204 13.6206 14.1043 13.145C14.1933 12.9994 14.3399 12.7597 14.429 12.6141C14.5236 12.4629 14.6498 12.2491 14.7073 12.1348C14.7648 12.0205 14.8966 11.7957 14.9968 11.639C15.0951 11.4823 15.2436 11.1855 15.316 10.9883C15.4625 10.5864 15.5201 10.4611 15.7297 10.0076C15.8522 9.75874 15.9673 9.63339 16.407 9.27394C17.0955 8.70987 17.3886 8.42415 17.8024 7.89326C18.3591 7.18357 18.784 6.83517 19.5077 6.48493C20.4411 6.03147 20.6823 5.92824 21.0237 5.8287C21.4115 5.71994 22.781 5.66648 23.243 5.74575C23.6568 5.81395 24.1615 6.04806 24.6069 6.38724C24.8017 6.53286 25.1728 6.76697 25.4363 6.90706C25.6924 7.05269 26.0394 7.26652 26.2008 7.38634C26.3585 7.50247 26.6536 7.71445 26.8521 7.86192C27.0507 8.00202 27.2566 8.16423 27.3086 8.21032C27.4292 8.33014 27.843 8.53844 28.1213 8.6177L28.3421 8.68406L28.0954 8.83522C27.6444 9.12278 27.4292 9.50251 27.5702 9.78455C27.6649 9.95598 28.1325 9.87856 28.7355 9.58178C29.1753 9.36242 29.307 9.32002 29.6225 9.3108C29.9008 9.29421 30.0103 9.3108 30.079 9.37163C30.1309 9.41956 30.2942 9.50251 30.4464 9.55966C30.6932 9.65367 30.7507 9.6592 30.9808 9.60205C31.1218 9.56519 31.2647 9.50251 31.2999 9.46196C31.3315 9.41956 31.3593 9.24813 31.363 9.07485C31.363 8.7836 31.3538 8.75227 31.1849 8.6177C30.8806 8.36147 30.22 8.30986 29.9472 8.51816C29.9212 8.53844 29.7895 8.53291 29.6596 8.51263C29.5279 8.48682 29.3646 8.48129 29.2922 8.49604L29.1605 8.52738L29.2755 8.42968C29.4184 8.30433 29.565 7.93381 29.6856 7.39187C29.7895 6.9384 29.9045 6.68402 30.0882 6.4794C30.2256 6.33378 30.6653 6.0628 30.7711 6.0628C30.8082 6.0628 30.9066 6.02594 30.9863 5.98538C31.1274 5.91165 31.2907 5.89137 32.1776 5.82317C32.5283 5.79736 32.9848 5.68307 33.0906 5.60012C33.1518 5.54666 33.5452 5.33283 34.1705 5.01025C34.6103 4.77614 34.7161 4.77061 35.5288 4.94204C36.0168 5.04158 36.2692 5.18721 36.4102 5.45818C36.5104 5.65173 37.2081 6.32825 37.4902 6.51074C37.6015 6.58447 37.7017 6.67296 37.7165 6.71535C37.7425 6.78171 38.3307 7.15776 38.4087 7.15776C38.4309 7.15776 38.5089 7.1891 38.5831 7.23149C38.7501 7.31997 39.7317 7.44901 40.036 7.42873C40.6762 7.37712 40.9063 7.34578 41.1475 7.26099C41.2477 7.22596 41.4147 7.18357 41.5149 7.15776C41.6151 7.13748 41.9343 7.05269 42.2238 6.9808C42.5114 6.90153 43.0105 6.80383 43.3241 6.76697C43.6451 6.72457 44.033 6.65268 44.1907 6.61028C44.3484 6.5642 44.7251 6.49599 45.0294 6.4536C45.7791 6.35958 48.3824 6.30244 48.7498 6.37617C49.184 6.45913 49.6517 6.75591 49.8558 7.07481C49.9448 7.22043 50.1285 7.50615 50.2547 7.71077C50.3809 7.91354 50.5646 8.16423 50.6629 8.26746C50.8893 8.5071 51.0266 8.79835 51.1677 9.37163C51.2363 9.62786 51.3087 9.88409 51.3347 9.9357C51.4349 10.1274 51.8487 10.1753 51.8487 9.99285C51.8487 9.94123 51.8765 9.93017 51.9433 9.96704C52.1493 10.0813 52.3942 10.1809 52.4573 10.1809C52.4944 10.1809 52.6057 10.2122 52.6985 10.2528C52.8618 10.3265 53.0511 10.3984 53.1086 10.415C53.1865 10.4297 53.5131 10.6233 53.8007 10.8205C53.9844 10.9459 54.3778 11.1708 54.6821 11.3274C55.2852 11.6297 55.365 11.6924 55.7009 12.0924C56.0831 12.5459 56.9756 13.3441 57.3208 13.5321C57.7513 13.7717 58.1242 13.8805 58.6958 13.9376C58.9574 13.9634 59.2988 14.0058 59.4566 14.0316C59.8017 14.0833 60.4845 14.3137 60.5996 14.4169C60.6515 14.4593 60.7833 14.5312 60.8928 14.5791C61.0097 14.6252 61.2194 14.7616 61.3659 14.887C61.5125 15.0068 61.7278 15.1782 61.8428 15.2612C62.1212 15.4603 62.971 16.3082 63.1028 16.5165C63.1603 16.6105 63.2958 16.8188 63.4108 16.9866C63.5221 17.1525 63.6427 17.3773 63.6836 17.4861C63.7207 17.6022 63.7893 17.7534 63.832 17.8308C63.8728 17.9082 64.0046 18.1755 64.1141 18.4244C64.3237 18.8778 64.7598 19.4825 65.1217 19.8216C65.2274 19.9212 65.4519 20.2124 65.6208 20.4723C65.8082 20.7654 66.0717 21.077 66.3222 21.3074C67.2259 22.1406 67.4151 22.3489 67.6285 22.771C68.0126 23.5323 68.1704 24.1683 68.3578 25.7314C68.4431 26.4043 68.4431 26.4872 68.3634 26.8614Z" fill="black"/>
<path d="M68.3578 25.7315C68.1704 24.1683 68.0127 23.5323 67.6286 22.771C67.4152 22.3489 67.2259 22.1406 66.3222 21.3074C66.0717 21.077 65.8082 20.7654 65.6208 20.4724C65.452 20.2124 65.2274 19.9212 65.1217 19.8216C64.7598 19.4825 64.3238 18.8778 64.1141 18.4244C64.0046 18.1755 63.8729 17.9082 63.832 17.8308C63.7894 17.7534 63.7207 17.6022 63.6836 17.4861C63.6428 17.3774 63.5222 17.1525 63.4108 16.9866C63.2958 16.8188 63.1603 16.6105 63.1028 16.5165C62.9711 16.3082 62.1212 15.4603 61.8429 15.2612C61.7278 15.1782 61.5126 15.0068 61.366 14.887C61.2194 14.7616 61.0097 14.6252 60.8928 14.5791C60.7833 14.5312 60.6516 14.4593 60.5996 14.4169C60.4846 14.3137 59.8017 14.0833 59.4566 14.0317C59.2989 14.0058 58.9574 13.9635 58.6958 13.9376C58.1243 13.8805 57.7513 13.7717 57.3208 13.5321C56.9757 13.3441 56.0831 12.5459 55.7009 12.0924C55.365 11.6924 55.2852 11.6298 54.6822 11.3274C54.3778 11.1708 53.9845 10.9459 53.8008 10.8205C53.5131 10.6233 53.1866 10.4297 53.1086 10.415C53.0511 10.3984 52.8618 10.3265 52.6985 10.2528C52.6058 10.2122 52.4944 10.1809 52.4573 10.1809C52.3942 10.1809 52.1493 10.0813 51.9433 9.96705C51.8765 9.93018 51.8487 9.94124 51.8487 9.99286C51.8487 10.1753 51.4349 10.1274 51.3347 9.93571C51.3087 9.8841 51.2363 9.62787 51.1677 9.37164C51.0267 8.79836 50.8894 8.50711 50.663 8.26747C50.5646 8.16424 50.3809 7.91355 50.2547 7.71078C50.1286 7.50616 49.9449 7.22044 49.8558 7.07482C49.6517 6.75592 49.1841 6.45914 48.7499 6.37619C48.3825 6.30245 45.7791 6.35959 45.0294 6.45361C44.7251 6.496 44.3484 6.56421 44.1907 6.61029C44.033 6.65269 43.6452 6.72458 43.3241 6.76698C43.0105 6.80384 42.5114 6.90154 42.2238 6.98081C41.9343 7.0527 41.6151 7.13749 41.5149 7.15777C41.4147 7.18358 41.2477 7.22597 41.1475 7.261C40.9063 7.34579 40.6762 7.37713 40.036 7.42874C39.7317 7.44902 38.7501 7.31999 38.5831 7.2315C38.5089 7.18911 38.431 7.15777 38.4087 7.15777C38.3308 7.15777 37.7425 6.78172 37.7166 6.71536C37.7017 6.67297 37.6015 6.58448 37.4902 6.51075C37.2081 6.32826 36.5104 5.65175 36.4102 5.45819C36.2692 5.18722 36.0169 5.04159 35.5288 4.94205C34.7161 4.77062 34.6103 4.77615 34.1705 5.01026C33.5452 5.33284 33.1518 5.54667 33.0906 5.60013C32.9848 5.68308 32.5284 5.79737 32.1777 5.82318C31.2907 5.89138 31.1274 5.91166 30.9864 5.98539C30.9066 6.02595 30.8082 6.06281 30.7711 6.06281C30.6654 6.06281 30.2256 6.33379 30.0883 6.47941C29.9046 6.68403 29.7895 6.93841 29.6856 7.39188C29.565 7.93382 29.4184 8.30434 29.2755 8.42969L29.1605 8.52739L29.2922 8.49605C29.3646 8.4813 29.5279 8.48683 29.6596 8.51264C29.7895 8.53292 29.9213 8.53845 29.9472 8.51817C30.22 8.30987 30.8806 8.36148 31.1849 8.61771C31.3538 8.75228 31.3631 8.78361 31.3631 9.07486C31.3593 9.24814 31.3315 9.41957 31.3 9.46197C31.2647 9.50252 31.1218 9.5652 30.9808 9.60206C30.7507 9.65921 30.6932 9.65368 30.4464 9.55967C30.2942 9.50252 30.1309 9.41957 30.079 9.37164C30.0103 9.31081 29.9009 9.29422 29.6225 9.31081C29.3071 9.32003 29.1753 9.36243 28.7355 9.58179C28.1325 9.87857 27.6649 9.95599 27.5702 9.78456C27.4292 9.50252 27.6445 9.12279 28.0954 8.83523L28.3422 8.68407L28.1213 8.61771C27.843 8.53845 27.4292 8.33015 27.3086 8.21033C27.2566 8.16424 27.0507 8.00203 26.8521 7.86193C26.6536 7.71446 26.3585 7.50248 26.2008 7.38635C26.0394 7.26653 25.6924 7.0527 25.4363 6.90707C25.1728 6.76698 24.8017 6.53287 24.6069 6.38725C24.1615 6.04807 23.6568 5.81396 23.243 5.74576C22.781 5.66649 21.4116 5.71995 21.0237 5.82871C20.6823 5.92825 20.4411 6.03148 19.5077 6.48494C18.7841 6.83518 18.3591 7.18358 17.8025 7.89327C17.3887 8.42416 17.0955 8.70988 16.4071 9.27395C15.9673 9.6334 15.8522 9.75875 15.7298 10.0076C15.5201 10.4611 15.4626 10.5864 15.316 10.9883C15.2436 11.1855 15.0952 11.4823 14.9968 11.639C14.8966 11.7957 14.7649 12.0206 14.7073 12.1348C14.6498 12.2491 14.5236 12.463 14.429 12.6141C14.3399 12.7597 14.1933 12.9994 14.1043 13.145C13.8204 13.6206 13.3917 13.7349 13.0243 13.4215C12.8722 13.2962 12.8462 13.2962 12.3303 13.322C12.0372 13.3386 11.7495 13.3644 11.692 13.3754C11.1149 13.521 10.6269 13.6151 10.3003 13.6464C9.21482 13.7404 8.82143 13.886 8.1126 14.4593C7.67283 14.8188 7.34253 15.2815 7.26274 15.6575C7.12729 16.2879 6.53907 17.6594 6.27186 17.9764C6.15125 18.1165 5.66323 18.4502 5.51107 18.4926C5.38118 18.5295 4.83379 18.7838 4.79296 18.8318C4.76698 18.8576 4.4571 19.0235 3.99506 19.2631C3.88558 19.3166 3.73899 19.4253 3.66477 19.4991C3.33447 19.8364 2.89841 20.3783 2.86687 20.4982C2.85202 20.5719 2.82048 20.6401 2.80378 20.6548C2.73141 20.7175 2.53657 21.1913 2.53657 21.3074C2.53657 21.3793 2.51616 21.4364 2.49018 21.4364C2.46421 21.4364 2.41596 21.5415 2.38442 21.6724C2.35287 21.8014 2.30648 21.9065 2.2805 21.9065C2.25453 21.9065 2.22298 21.9692 2.20628 22.0466C2.15989 22.3176 2.12835 22.4171 2.03928 22.583C1.99103 22.6715 1.94464 22.8448 1.93908 22.9646C1.92794 23.0844 1.8964 23.2411 1.87042 23.313C1.80733 23.4752 1.82403 24.3139 1.89083 24.5646C2.07453 25.2319 2.54214 25.737 3.26025 26.0485C3.50148 26.1536 3.75384 26.2476 3.81136 26.2623C3.86888 26.2734 3.98949 26.3047 4.07856 26.3305C4.32536 26.408 4.79853 26.4448 5.63169 26.4504C6.72277 26.4614 7.1644 26.3508 7.78231 25.9287C8.31857 25.5637 8.62845 25.2153 9.22038 24.3194C9.40965 24.0264 9.61377 23.7775 9.66572 23.7554C9.71953 23.7406 9.82901 23.7517 9.90695 23.783C10.0498 23.8346 10.0554 23.8439 10.0239 24.1775C9.99602 24.5167 10.0016 24.5277 10.1482 24.6107C10.2484 24.6678 10.3541 24.8135 10.4636 25.0586C10.7791 25.7517 10.8106 25.8402 10.857 26.1794C10.8737 26.2789 10.9053 26.4762 10.9312 26.6218C10.9721 26.8412 10.9888 27.0605 10.9888 27.5453C10.9888 27.5822 10.9721 27.7942 10.9516 28.0135C10.8997 28.5868 10.9776 28.8117 11.3599 29.2283C11.5343 29.4163 11.7588 29.608 11.8646 29.656C11.9685 29.7021 12.0891 29.785 12.1262 29.8329C12.1578 29.8845 12.258 29.9362 12.3415 29.9583C12.425 29.973 12.5252 30.0246 12.5623 30.067C12.5938 30.1094 12.6514 30.1408 12.6885 30.1408C12.7256 30.1408 12.9353 30.2348 13.1505 30.3491C13.5216 30.5408 13.6849 30.609 14.21 30.797C14.3251 30.8394 14.455 30.891 14.4977 30.9168C14.5459 30.9426 14.661 30.9795 14.7593 30.9998C14.8595 31.0201 15.0172 31.068 15.1007 31.1049C15.3475 31.2081 16.0025 31.339 16.3031 31.339C16.9786 31.339 17.886 31.5104 18.3591 31.7353C18.5057 31.8035 18.6579 31.8606 18.7006 31.8606C18.7432 31.8606 18.8843 31.8956 19.0253 31.938C19.1607 31.9804 19.3816 32.0523 19.5244 32.0947C19.6599 32.1353 19.8436 32.1722 19.9271 32.1722C20.159 32.1722 20.7937 32.3602 20.9031 32.4652C20.9607 32.5169 21.0126 32.5427 21.0237 32.5316C21.0349 32.5224 21.1295 32.3233 21.2279 32.1003C21.4227 31.656 21.727 31.2873 21.8903 31.2873C21.9478 31.2873 22.0517 31.3076 22.1204 31.3334C22.267 31.3906 22.2726 31.4643 22.1352 32.2146C22.0425 32.7086 22.0573 33.398 22.1631 33.5012C22.1891 33.527 22.2095 33.6008 22.2095 33.669C22.2095 33.7372 22.267 33.9031 22.3412 34.0376C22.408 34.174 22.4822 34.3621 22.4971 34.4598C22.5138 34.5593 22.5509 34.6736 22.5713 34.7215C22.614 34.7989 22.6492 34.9925 22.7123 35.5344C22.7346 35.6745 22.7717 35.8368 22.7977 35.8884C22.8237 35.94 22.8608 36.0506 22.87 36.1225C22.8867 36.2017 22.9183 36.2847 22.9387 36.316C22.9591 36.3418 23.0129 36.4506 23.0482 36.5501C23.0909 36.6497 23.1744 36.8008 23.243 36.8783C23.3117 36.9612 23.3636 37.0497 23.3636 37.0773C23.3636 37.1972 23.7626 37.6506 24.2135 38.0451C24.3657 38.1815 24.7961 38.3585 25.1691 38.4377C25.3157 38.4672 26.0023 38.4986 26.6944 38.5041C27.3865 38.5096 28.1956 38.5299 28.4888 38.5576C28.9879 38.5926 29.051 38.5889 29.4704 38.458C29.8637 38.3327 30.0215 38.3124 30.7711 38.2903C32.1721 38.2589 32.6174 38.2276 32.8642 38.1612C32.9904 38.1244 33.1518 38.0875 33.2261 38.082C33.3003 38.0764 33.5823 38.0562 33.8551 38.0414C34.7847 37.9787 35.7181 37.8479 35.8907 37.7538C35.9538 37.7225 36.054 37.6967 36.1226 37.6967C36.2265 37.6967 36.6719 37.4571 36.8723 37.2948C36.9354 37.2432 38.199 36.1022 38.3363 35.9768C38.4254 35.8884 38.4198 35.8828 38.0951 35.7741C37.7054 35.6432 37.0077 35.2635 36.9298 35.1326C36.8148 34.939 36.9669 34.9298 37.3696 35.1013C37.8947 35.3206 38.4569 35.3317 39.06 35.1271C39.2808 35.0552 39.6835 34.9556 39.9507 34.904C40.2197 34.8561 40.4869 34.7934 40.5445 34.7621C40.6762 34.6902 41.1995 34.7105 41.2941 34.7934C41.4092 34.8874 41.3424 35.3003 41.1902 35.4202C41.1271 35.4718 41.0009 35.5713 40.9174 35.6432C40.8377 35.7114 40.743 35.7685 40.7078 35.7685C40.6391 35.7741 40.9379 36.0285 41.0121 36.0285C41.0381 36.0285 41.1327 36.0819 41.2218 36.1483C41.3108 36.2165 41.5038 36.3363 41.6467 36.4193C41.7933 36.5077 41.951 36.5981 41.9974 36.6276C42.0494 36.6552 42.1755 36.7437 42.2869 36.8156C42.7693 37.1437 43.519 37.6027 43.8752 37.7797C43.9754 37.8331 44.0701 37.8903 44.0849 37.905C44.1016 37.9253 44.148 37.9566 44.1907 37.9787C44.3892 38.0727 44.9459 38.4672 45.1612 38.6718C45.4543 38.9428 45.6009 39.0092 45.8589 38.9797C45.9943 38.9576 46.1632 38.9428 46.2355 38.9428C46.3098 38.9373 46.5343 38.917 46.7347 38.8894C46.9388 38.8691 47.605 38.8322 48.2247 38.8175C49.3158 38.7861 49.3566 38.7806 49.7463 38.6294C50.1972 38.4525 50.5015 38.2903 51.3143 37.8018C51.9656 37.411 52.474 36.9262 52.7208 36.4672C53.0771 35.8054 53.2497 35.4404 53.2979 35.2321C53.3127 35.1529 53.3499 35.0754 53.3758 35.0607C53.4705 35.0017 53.4185 34.893 53.2719 34.8358C53.0196 34.7307 52.7041 34.3879 52.5946 34.0911C52.474 33.7777 52.5 33.7095 52.7728 33.6524C52.8785 33.6321 52.962 33.6468 53.0084 33.6948C53.0511 33.7353 53.1717 33.8201 53.2756 33.8828C53.5391 34.0432 54.2257 34.0487 54.7712 33.892C54.9809 33.8349 55.1962 33.7888 55.2481 33.7888C55.3427 33.7888 55.7102 33.3722 56.0349 32.8966C56.1833 32.6791 56.3448 32.5113 56.7957 32.1003C56.8755 32.0265 56.9794 31.9639 57.022 31.9639C57.0592 31.9639 57.0963 31.9436 57.0963 31.9178C57.0963 31.8643 57.4414 31.6523 57.5249 31.6523C57.5565 31.6523 57.6567 31.5933 57.7457 31.5325C57.8348 31.4643 57.9925 31.3703 58.0927 31.3224C58.4601 31.1454 58.9834 30.6514 59.2413 30.2293C59.3508 30.0468 59.3564 30.0357 59.2617 29.9988C59.0947 29.9362 58.5529 29.5564 58.4063 29.3942C58.2764 29.2486 58.2542 29.2431 58.0927 29.2965C57.5305 29.4938 56.7808 29.1546 56.7808 28.7122C56.7808 28.5555 56.7957 28.5241 56.8959 28.5241C56.959 28.5241 57.0592 28.5721 57.1223 28.6292C57.2058 28.7066 57.3412 28.7435 57.5936 28.7693L57.9498 28.8007L57.8088 28.5721C57.536 28.1334 57.4897 28.008 57.562 27.9361C57.614 27.8845 57.6678 27.9195 57.82 28.1075C58.2764 28.6698 58.4026 28.7583 58.8851 28.8523C59.1263 28.9002 59.6087 28.9518 59.9539 28.9684C60.3009 28.9831 60.6423 29.0034 60.7147 29.0145C60.7889 29.0311 61.0932 29.0772 61.3975 29.1232C61.7018 29.1767 62.021 29.2431 62.1045 29.2855C62.1954 29.3223 62.5573 29.4311 62.9191 29.5251C63.485 29.6652 63.6576 29.6928 64.2032 29.6873C64.7858 29.6818 64.9862 29.6615 65.6468 29.5196C65.8825 29.4735 66.3538 29.3223 66.4651 29.2596C66.8474 29.0403 67.4467 28.5924 67.6137 28.3951C67.9867 27.9361 68.2483 27.4034 68.3634 26.8614C68.4432 26.4872 68.4432 26.4043 68.3578 25.7315ZM12.1633 20.3433C12.0112 20.3433 11.9648 20.3747 11.8275 20.5664C11.5974 20.9 11.2615 21.5931 11.2188 21.818C11.1409 22.2291 10.7475 22.2604 10.5842 21.8696C10.4896 21.6503 10.51 21.4733 10.6993 20.9682C10.998 20.1664 11.7069 19.6502 12.1782 19.8954C12.2691 19.9415 12.4305 19.9783 12.5363 19.9783C12.7033 19.9783 12.7775 19.9304 13.1654 19.5507C13.401 19.3166 13.6534 19.0917 13.722 19.0548C13.7888 19.0198 13.9373 18.9921 14.0523 19.0032C14.2193 19.0143 14.262 19.0345 14.262 19.112C14.262 19.1894 14.1989 19.2318 14.0152 19.2852C13.8259 19.3368 13.6534 19.4622 13.3027 19.7848C12.8239 20.2272 12.5938 20.3433 12.1633 20.3433ZM14.724 29.8587C14.5496 29.8901 13.9002 29.5822 13.5532 29.3113C13.2025 29.0255 12.72 28.5352 12.6309 28.3582C12.5419 28.1868 12.5103 27.4974 12.5734 27.149C12.6198 26.9094 12.8091 26.1997 12.8777 26.0338C12.9353 25.8937 13.1338 25.8771 13.26 26.0135C13.3324 26.0964 13.3435 26.2218 13.3324 26.8098C13.3231 27.3886 13.3379 27.5398 13.4121 27.6799C13.5587 27.9453 14.5144 28.8689 14.917 29.1288C15.1174 29.2596 15.2844 29.3739 15.2844 29.3905C15.2844 29.5417 14.9541 29.8163 14.724 29.8587ZM25.2211 31.8698C25.1895 32.0321 25.158 32.0689 24.9687 32.1353C24.4232 32.3344 23.8034 32.2662 23.5937 31.9804C23.4842 31.8348 23.2003 31.256 23.1335 31.0366C23.0909 30.9058 22.9183 30.8173 22.6919 30.8173C22.3468 30.8118 21.7734 30.4523 21.868 30.2975C21.9163 30.2182 22.0313 30.2348 22.1037 30.3233C22.1779 30.4117 22.5973 30.5408 22.9703 30.5887C23.217 30.6145 23.2579 30.6459 23.6624 31.0625L24.0929 31.5049L24.5957 31.5159C25.184 31.5325 25.2675 31.5786 25.2211 31.8698ZM33.252 36.8635C32.9013 36.8635 32.4912 36.9667 32.1238 37.1492C31.9939 37.2119 31.6637 37.3428 31.3909 37.4368C30.4724 37.7483 29.8006 37.6451 29.3238 37.1234C29.1178 36.9004 29.0287 36.5981 29.1345 36.4727C29.2236 36.3621 29.2867 36.3732 29.5427 36.5501C29.8582 36.7584 30.1198 36.7842 31.2332 36.7068C31.7676 36.67 32.571 36.6276 33.0164 36.6239C33.8087 36.6017 34.3338 36.5133 34.5899 36.3418C34.6994 36.2681 34.9573 36.2792 34.9573 36.3529C34.9573 36.504 33.7456 36.8635 33.252 36.8635ZM49.6572 37.3944C49.4939 37.5197 49.3529 37.634 49.3418 37.6543C49.3307 37.682 49.2898 37.6967 49.2472 37.6967C49.2045 37.6967 49.121 37.7446 49.0635 37.7962C48.8649 37.9787 48.5495 38.0193 47.2951 38.0248C46.1316 38.0248 46.089 38.0248 45.8737 37.905C45.4599 37.6709 45.5694 37.3741 46.0741 37.3575C46.204 37.352 46.5621 37.3225 46.8664 37.2912C47.1708 37.2543 47.6569 37.2064 47.9575 37.175C48.2563 37.1437 48.5606 37.0921 48.6385 37.0497C48.7183 37.0147 48.8538 36.9667 48.9373 36.9465C49.1785 36.8893 49.9449 36.4561 50.0395 36.3271C50.0822 36.2644 50.1174 36.1759 50.1174 36.1335C50.1174 36.0856 50.1453 36.0248 50.1805 35.9879C50.2603 35.9086 50.2863 35.9086 50.3902 35.9879C50.7168 36.2478 50.4125 36.8211 49.6572 37.3944ZM52.8154 16.8723C52.6781 16.9128 52.5835 16.8151 52.4054 16.4336C52.2792 16.1736 51.6873 15.3865 51.331 15.0105C51.2568 14.9331 51.0526 14.7985 50.8782 14.7137C50.5739 14.5625 50.5535 14.5625 50.2752 14.6252C50.1174 14.6676 49.9337 14.7248 49.8669 14.7616C49.7983 14.7985 49.5403 14.839 49.2898 14.8556C48.8742 14.8814 48.8018 14.8704 48.4919 14.745C48.0837 14.5736 47.8777 14.522 47.4955 14.4741C47.18 14.4427 46.8664 14.3284 46.8034 14.2289C46.6456 13.98 46.9073 13.6409 47.3174 13.5671C47.4584 13.5413 47.7571 13.5321 47.9779 13.5413C48.3286 13.5579 48.4344 13.5837 48.722 13.7441C49.0894 13.9487 49.3789 13.9837 49.8985 13.8916C50.4329 13.7976 50.8894 13.8952 51.6075 14.2602C52.0695 14.4999 52.5946 14.9496 52.7412 15.2354C52.8934 15.5266 53.0029 16.0225 53.0029 16.3875C53.0029 16.7525 52.9769 16.8188 52.8154 16.8723ZM66.4169 26.3508C66.2554 26.6642 65.7507 27.1693 65.6097 27.1693C65.5522 27.1693 65.5633 27.1951 65.6524 27.2633C65.7247 27.326 65.7563 27.3942 65.7359 27.4458C65.7099 27.514 65.6412 27.5232 65.2942 27.4974C64.7858 27.4624 64.5965 27.3684 64.5965 27.1379C64.5965 26.9352 64.7487 26.7379 65.0437 26.5647C65.3258 26.4043 65.6153 26.0909 65.7303 25.831C65.8769 25.4918 65.888 24.7674 65.7507 24.1425C65.5577 23.2411 65.3833 22.583 65.2534 22.2604C65.0011 21.641 64.3609 20.8281 63.9675 20.6143C63.7634 20.5037 63.7059 20.3525 63.832 20.2585C63.9044 20.2069 63.9731 20.218 64.1883 20.312C64.5335 20.4521 64.8285 20.7175 65.2998 21.3019C65.7247 21.8272 65.9827 22.2973 66.1868 22.9222C66.7787 24.7305 66.8381 25.5692 66.4169 26.3508Z" fill="#786EA4"/>
<g clip-path="url(#clip1_8_2)">
<path d="M30.5243 0.569628C30.3035 0.466399 29.1141 0.0811374 28.9081 0.0442702C28.6094 -0.00734388 28.2735 -0.012874 28.0323 0.0239932C27.9005 0.0442702 27.5294 0.195426 27.2028 0.355798C26.7167 0.600965 26.5367 0.663639 26.2064 0.700506C25.273 0.814794 24.8648 1.16503 24.6959 1.98717C24.5327 2.78535 24.7442 3.75495 25.2304 4.48861C25.3677 4.69875 25.4771 4.79645 25.6608 4.87572C25.7982 4.93839 25.9188 4.99922 25.9336 5.02134C26.045 5.18171 26.8892 5.39554 27.3977 5.39186C27.5962 5.39186 27.8708 5.34393 28.075 5.27572C28.3793 5.17803 28.4683 5.10982 28.8562 4.7135C29.103 4.46833 29.333 4.19183 29.3813 4.10888C29.4277 4.0204 29.5743 3.80104 29.706 3.61301C30.3777 2.68027 30.9177 1.6185 30.9177 1.22218C30.9177 0.945673 30.7544 0.680229 30.5243 0.569628V0.569628ZM29.7376 1.93556C29.591 2.14386 29.4481 2.36322 29.4184 2.42589C29.3071 2.6176 28.6409 3.41577 28.2327 3.84343L27.8282 4.26556L27.0674 4.27662C26.2231 4.29137 26.2955 4.32271 26.2175 3.90058C26.1971 3.78629 26.1748 3.66647 26.1656 3.64066C25.9819 2.91069 25.9559 2.64894 26.019 2.25446C26.0542 2.04984 26.1915 1.94662 26.4328 1.94662C26.8521 1.94662 27.4608 1.67564 27.9915 1.25351C28.1696 1.10789 28.4201 0.96042 28.5518 0.925396C28.8933 0.825855 29.6374 0.868252 29.9472 1.00282C30.079 1.05996 30.1829 1.12817 30.1829 1.14844C30.1829 1.22771 30.0048 1.54476 29.7376 1.93556V1.93556Z" fill="black"/>
<path d="M30.1829 1.14844C30.1829 1.22771 30.0048 1.54476 29.7376 1.93556C29.591 2.14386 29.4481 2.36322 29.4184 2.42589C29.3071 2.6176 28.6409 3.41577 28.2327 3.84343L27.8282 4.26556L27.0674 4.27662C26.2231 4.29137 26.2954 4.32271 26.2175 3.90058C26.1971 3.78629 26.1748 3.66647 26.1656 3.64066C25.9819 2.91069 25.9559 2.64894 26.019 2.25446C26.0542 2.04984 26.1915 1.94662 26.4328 1.94662C26.8521 1.94662 27.4608 1.67564 27.9915 1.25351C28.1696 1.10789 28.4201 0.960419 28.5518 0.925395C28.8933 0.825853 29.6374 0.868251 29.9472 1.00282C30.079 1.05996 30.1829 1.12816 30.1829 1.14844V1.14844Z" fill="#6C3145"/>
<path d="M69.8014 25.5803C69.7439 25.466 69.6604 25.2522 69.6122 25.1102C69.5658 24.9646 69.4767 24.7508 69.4229 24.631C69.3654 24.5075 69.319 24.3913 69.319 24.3766C69.319 24.36 69.1872 24.0853 69.0295 23.7664C68.5638 22.8079 68.0219 22.0521 67.2463 21.2705C66.4447 20.4576 66.3445 20.2954 66.1125 19.3221C66.0235 18.9516 65.862 18.4041 65.747 18.1018C65.6245 17.7995 65.4891 17.4032 65.4315 17.2207C65.3796 17.0326 65.3109 16.8612 65.2794 16.8299C65.2534 16.8041 65.2274 16.7414 65.2274 16.6898C65.2274 16.5534 64.8693 15.9027 64.6912 15.7202C64.6021 15.6317 64.4722 15.4547 64.3924 15.3294C64.0102 14.6934 62.3735 13.4326 61.3864 13.0196C60.3268 12.5717 60.0336 12.5367 58.3024 12.6602C57.3579 12.7284 56.6602 12.4777 56.1295 11.8786C55.673 11.3625 55.4541 11.1652 54.8974 10.7689C54.5782 10.5403 54.2888 10.2749 54.0791 10.0242C53.669 9.52832 53.3554 9.36242 52.5204 9.19467C52.1957 9.132 51.9229 9.06932 51.9118 9.06564C51.9062 9.05458 51.8765 8.87761 51.8487 8.66378C51.7336 7.814 51.4608 7.2573 50.8949 6.70982C50.5108 6.33931 50.3753 6.2453 49.7519 5.94299C48.6589 5.40657 48.1189 5.25541 46.4452 5.01578C45.6065 4.89596 44.7139 4.90702 44.1109 5.04711C43.9383 5.08951 43.6192 5.15587 43.4039 5.2038C43.1887 5.24988 42.7062 5.39551 42.3277 5.52639C41.4054 5.84897 40.9954 5.94852 40.461 5.99091C39.5796 6.05727 38.9338 5.83423 38.2101 5.2038C38.1359 5.14112 37.8539 4.93835 37.5755 4.75033C36.9984 4.36507 36.7034 4.27106 35.8127 4.19179C35.5028 4.16046 35.0928 4.0941 34.9053 4.03511C34.4897 3.90607 34.1538 3.90607 33.6714 4.03142C33.4728 4.08304 33.1166 4.19179 32.8846 4.26553C32.6545 4.34295 32.1925 4.43696 31.8622 4.47383C30.7284 4.60839 30.0307 4.93835 29.3813 5.63514C29.1178 5.91165 28.9935 6.18262 28.8097 6.84439C28.7151 7.1891 28.6093 7.47113 28.5778 7.47113C28.5203 7.47113 28.0211 7.06375 27.9859 6.98633C27.9376 6.87573 26.3901 5.92271 25.9651 5.74022C25.7035 5.63146 25.414 5.50611 25.3213 5.45818C24.8741 5.25541 23.5213 5.13006 22.0777 5.1614C20.8512 5.18721 20.84 5.18721 18.9306 5.78261C18.2329 6.00013 17.6095 6.3559 16.921 6.92918C16.8171 7.01766 16.5648 7.20384 16.3606 7.34578C16.1602 7.48588 15.945 7.64256 15.893 7.68865C15.8355 7.7421 15.7669 7.78266 15.7409 7.78266C15.7149 7.78266 15.4625 8.01308 15.1805 8.28774C14.5867 8.87761 14.3826 9.23707 14.0208 10.2896C13.9001 10.6436 13.7795 10.9625 13.7573 10.9938C13.7313 11.0251 13.5847 11.3016 13.427 11.6076C13.2711 11.9155 13.1189 12.1975 13.0874 12.2288C13.0596 12.2657 13.0187 12.3579 13.002 12.4371C12.9816 12.5146 12.9241 12.5975 12.8777 12.6252C12.7664 12.6823 12.1745 12.6454 11.6642 12.5514C10.6789 12.3689 10.6046 12.3689 9.98115 12.4464C9.18325 12.5514 9.03666 12.5883 8.69523 12.7966C8.11258 13.1395 7.10685 14.2916 6.57616 15.2096C6.42957 15.4639 6.26071 15.7257 6.20875 15.7828C6.03062 15.9745 5.73187 16.6418 5.6428 17.0382C5.5426 17.5082 5.48507 17.5598 5.00262 17.5967C4.57769 17.6317 3.7167 17.9082 3.04498 18.2271C2.47903 18.4981 1.94462 18.9147 1.55124 19.3884C1.38238 19.5931 0.931475 20.4097 0.85354 20.6456C0.821996 20.7488 0.736639 20.9516 0.675405 21.0991C0.612315 21.2392 0.495413 21.536 0.423045 21.7498C0.348822 21.9636 0.239343 22.277 0.176253 22.4429C0.0983183 22.6678 0.0612067 22.9424 0.024095 23.5637C-0.0185834 24.3711 -0.0130166 24.3876 0.129863 24.8245C0.411912 25.7056 0.606748 26.0227 1.23579 26.6273C2.02256 27.3942 2.68871 27.7223 3.84845 27.9306C4.38286 28.0301 5.94155 27.9933 6.5075 27.8734C7.68765 27.6283 8.62843 26.9868 9.20923 26.0393C9.35397 25.8033 9.47829 25.6172 9.48757 25.6172C9.4987 25.6264 9.53025 25.8402 9.56179 26.102C9.59333 26.3563 9.6657 26.8264 9.71951 27.1435C9.77704 27.4568 9.84384 27.8937 9.87538 28.1075C9.95517 28.6753 10.1129 29.103 10.4692 29.7242C10.8421 30.3638 11.0982 30.6827 11.5918 31.0938C12.2097 31.6099 13.2488 32.209 14.236 32.6164C14.4253 32.6938 14.5978 32.7768 14.6238 32.8026C14.6554 32.8302 14.7389 32.8505 14.8131 32.8505C14.891 32.8505 15.1953 32.9187 15.4997 33.0017C16.0025 33.1418 16.0934 33.1528 16.7281 33.1307C17.1047 33.1159 17.5148 33.1307 17.6447 33.1583C18.2181 33.2819 18.4111 33.3353 18.5113 33.4017C18.5688 33.4441 18.669 33.4754 18.7321 33.4754C18.7952 33.4754 18.9251 33.5067 19.0197 33.5491C19.2869 33.6579 19.5541 33.7353 19.6803 33.7353C19.8547 33.7353 20.1943 33.9344 20.3576 34.1261C20.7138 34.5538 20.7825 34.7215 20.9495 35.6377C21.072 36.2902 21.1443 36.5077 21.3911 36.9925C21.4969 37.1916 21.5804 37.3796 21.5804 37.4147C21.5804 37.4515 21.6583 37.5713 21.753 37.6856C21.842 37.8055 21.9942 37.999 22.0777 38.1188C22.3356 38.4727 23.0853 39.0682 23.4415 39.1917C24.2654 39.4848 25.0949 39.5788 26.8002 39.5622C27.5071 39.5566 28.049 39.5788 28.3106 39.6249C28.5889 39.6728 28.871 39.6765 29.2031 39.6507C29.8953 39.599 30.0103 39.6101 30.3926 39.776C30.5818 39.859 30.8657 39.9438 31.0235 39.964C31.8306 40.0636 32.25 40.0728 32.9384 40.0267C33.2576 40.0009 33.7141 39.9751 33.9608 39.964C35.7645 39.8811 37.0968 39.6304 37.6219 39.2709C37.7277 39.1972 37.9689 39.0368 38.1582 38.917C38.3456 38.7917 38.5293 38.6608 38.5664 38.6239C38.8911 38.2903 39.1008 38.0414 39.1286 37.9566C39.1491 37.8995 39.1806 37.8534 39.201 37.8534C39.227 37.8534 39.3123 37.7538 39.3903 37.6285C39.548 37.3944 40.0713 36.8635 40.1511 36.8635C40.1975 36.8635 40.5129 37.0239 41.0696 37.3317C41.2422 37.4257 41.578 37.6396 41.8137 37.7962C42.0549 37.9566 42.491 38.2497 42.7841 38.4469C43.1775 38.7087 43.5301 39.0147 44.0701 39.5622C44.5581 40.058 44.8884 40.3493 45.0405 40.4175C45.4488 40.6055 45.7902 40.6977 45.9999 40.6829C46.1149 40.6719 46.8442 40.6571 47.6217 40.6405C49.2156 40.6147 49.8094 40.5576 50.1916 40.3917C50.5702 40.235 51.1788 39.9069 51.2994 39.7963C51.3569 39.7447 51.498 39.6414 51.613 39.5677C51.7281 39.4903 51.9433 39.3225 52.0862 39.188C52.2328 39.0571 52.3942 38.9317 52.4536 38.917C52.5427 38.8857 52.9676 38.5096 53.3498 38.1244C53.4129 38.0617 53.5484 37.8479 53.6541 37.6543C53.7581 37.4626 53.875 37.2488 53.9158 37.175C54.1422 36.7695 54.3203 36.2423 54.4521 35.6119C54.5467 35.1436 54.6562 34.9759 54.8399 35.0238C55.1071 35.0902 56.0033 34.7529 56.4338 34.4192C56.7697 34.163 57.5472 33.433 58.449 32.5371C59.3044 31.6873 59.6811 31.1196 59.8759 30.3859C59.9279 30.1979 59.965 30.1463 60.0281 30.161C60.1951 30.2127 60.9614 30.2661 61.3288 30.2495C61.7074 30.2385 61.7111 30.2385 62.0117 30.4634C62.3772 30.7399 63.0081 31.0422 63.5741 31.2136C63.91 31.3187 64.1048 31.3445 64.5446 31.3445C65.9288 31.3389 67.0051 31.1196 67.6657 30.703C67.8401 30.5979 68.0702 30.4578 68.1796 30.4007C68.291 30.338 68.3893 30.2606 68.406 30.2182C68.4209 30.1758 68.5155 30.0984 68.6157 30.0412C68.7159 29.9841 68.8105 29.8901 68.831 29.844C68.8514 29.7905 69.0035 29.5822 69.1724 29.3739C69.3394 29.1712 69.4767 28.9831 69.4767 28.9629C69.4767 28.926 69.6437 28.5352 69.7383 28.3582C69.8534 28.1444 70 27.4034 70 27.0292C70.0055 26.4448 69.9165 25.8199 69.8014 25.5803V25.5803ZM68.3634 26.8614C68.2483 27.4034 67.9867 27.9361 67.6137 28.3951C67.4467 28.5923 66.8473 29.0403 66.4651 29.2596C66.3538 29.3223 65.8824 29.4735 65.6468 29.5196C64.9862 29.6615 64.7858 29.6818 64.2031 29.6873C63.6576 29.6928 63.485 29.6652 62.9191 29.5251C62.5572 29.4311 62.1954 29.3223 62.1045 29.2854C62.021 29.243 61.7018 29.1767 61.3975 29.1232C61.0932 29.0771 60.7889 29.0311 60.7146 29.0145C60.6423 29.0034 60.3008 28.9831 59.9539 28.9684C59.6087 28.9518 59.1263 28.9002 58.885 28.8523C58.4026 28.7582 58.2764 28.6698 57.8199 28.1075C57.6678 27.9195 57.614 27.8845 57.562 27.9361C57.4896 28.008 57.536 28.1333 57.8088 28.5721L57.9498 28.8006L57.5936 28.7693C57.3412 28.7435 57.2057 28.7066 57.1222 28.6292C57.0591 28.5721 56.9589 28.5241 56.8958 28.5241C56.7956 28.5241 56.7808 28.5555 56.7808 28.7122C56.7808 29.1546 57.5305 29.4937 58.0927 29.2965C58.2541 29.243 58.2764 29.2486 58.4063 29.3942C58.5529 29.5564 59.0947 29.9362 59.2617 29.9988C59.3564 30.0357 59.3508 30.0468 59.2413 30.2292C58.9834 30.6514 58.4601 31.1454 58.0927 31.3224C57.9925 31.3703 57.8348 31.4643 57.7457 31.5325C57.6566 31.5933 57.5564 31.6523 57.5249 31.6523C57.4414 31.6523 57.0963 31.8643 57.0963 31.9178C57.0963 31.9436 57.0591 31.9638 57.022 31.9638C56.9793 31.9638 56.8754 32.0265 56.7956 32.1003C56.3447 32.5113 56.1833 32.6791 56.0349 32.8966C55.7101 33.3722 55.3427 33.7888 55.2481 33.7888C55.1961 33.7888 54.9809 33.8349 54.7712 33.892C54.2257 34.0487 53.5391 34.0432 53.2756 33.8828C53.1717 33.8201 53.0511 33.7353 53.0084 33.6948C52.962 33.6468 52.8785 33.6321 52.7727 33.6524C52.5 33.7095 52.474 33.7777 52.5946 34.0911C52.7041 34.3879 53.0195 34.7307 53.2719 34.8358C53.4185 34.8929 53.4704 35.0017 53.3758 35.0607C53.3498 35.0754 53.3127 35.1529 53.2979 35.2321C53.2496 35.4404 53.0771 35.8054 52.7208 36.4672C52.474 36.9262 51.9656 37.411 51.3143 37.8018C50.5015 38.2903 50.1972 38.4525 49.7463 38.6294C49.3566 38.7806 49.3158 38.7861 48.2247 38.8175C47.605 38.8322 46.9388 38.8691 46.7347 38.8893C46.5343 38.917 46.3098 38.9373 46.2355 38.9428C46.1632 38.9428 45.9943 38.9576 45.8588 38.9797C45.6009 39.0092 45.4543 38.9428 45.1611 38.6718C44.9459 38.4672 44.3892 38.0727 44.1907 37.9787C44.148 37.9566 44.1016 37.9253 44.0849 37.905C44.0701 37.8902 43.9754 37.8331 43.8752 37.7796C43.519 37.6027 42.7693 37.1437 42.2868 36.8156C42.1755 36.7437 42.0493 36.6552 41.9974 36.6275C41.951 36.5981 41.7933 36.5077 41.6467 36.4192C41.5038 36.3363 41.3108 36.2165 41.2217 36.1483C41.1327 36.0819 41.038 36.0285 41.0121 36.0285C40.9378 36.0285 40.6391 35.7741 40.7077 35.7685C40.743 35.7685 40.8376 35.7114 40.9174 35.6432C41.0009 35.5713 41.1271 35.4718 41.1902 35.4201C41.3424 35.3003 41.4092 34.8874 41.2941 34.7934C41.1995 34.7105 40.6762 34.6902 40.5445 34.7621C40.4869 34.7934 40.2197 34.8561 39.9507 34.904C39.6835 34.9556 39.2808 35.0552 39.06 35.1271C38.4569 35.3317 37.8947 35.3206 37.3696 35.1012C36.9669 34.9298 36.8147 34.939 36.9298 35.1326C37.0077 35.2635 37.7054 35.6432 38.0951 35.7741C38.4198 35.8828 38.4254 35.8884 38.3363 35.9768C38.199 36.1022 36.9353 37.2432 36.8723 37.2948C36.6719 37.4571 36.2265 37.6967 36.1226 37.6967C36.0539 37.6967 35.9537 37.7225 35.8907 37.7538C35.7181 37.8479 34.7847 37.9787 33.8551 38.0414C33.5823 38.0561 33.3003 38.0764 33.226 38.082C33.1518 38.0875 32.9904 38.1244 32.8642 38.1612C32.6174 38.2276 32.1721 38.2589 30.7711 38.2903C30.0214 38.3124 29.8637 38.3327 29.4703 38.458C29.051 38.5889 28.9879 38.5926 28.4887 38.5575C28.1956 38.5299 27.3865 38.5096 26.6944 38.5041C26.0023 38.4986 25.3157 38.4672 25.1691 38.4377C24.7961 38.3585 24.3656 38.1815 24.2135 38.0451C23.7626 37.6506 23.3636 37.1971 23.3636 37.0773C23.3636 37.0497 23.3117 36.9612 23.243 36.8782C23.1743 36.8008 23.0908 36.6497 23.0482 36.5501C23.0129 36.4506 22.9591 36.3418 22.9387 36.316C22.9183 36.2847 22.8867 36.2017 22.87 36.1225C22.8608 36.0506 22.8236 35.94 22.7977 35.8884C22.7717 35.8367 22.7346 35.6745 22.7123 35.5344C22.6492 34.9925 22.614 34.7989 22.5713 34.7215C22.5509 34.6736 22.5138 34.5593 22.4971 34.4598C22.4822 34.3621 22.408 34.174 22.3412 34.0376C22.267 33.9031 22.2094 33.7353 22.2094 33.669C22.2094 33.6026 22.189 33.527 22.1631 33.5012C22.0573 33.398 22.0424 32.7086 22.1352 32.2145C22.2725 31.4643 22.267 31.3906 22.1204 31.3334C22.0517 31.3076 21.9478 31.2873 21.8903 31.2873C21.727 31.2873 21.4227 31.656 21.2278 32.1003C21.1295 32.3233 21.0349 32.5224 21.0237 32.5316C21.0126 32.5427 20.9606 32.5169 20.9031 32.4652C20.7936 32.3602 20.159 32.1721 19.9271 32.1721C19.8436 32.1721 19.6599 32.1353 19.5244 32.0947C19.3815 32.0523 19.1607 31.9804 19.0253 31.938C18.8842 31.8956 18.7414 31.8606 18.7005 31.8606C18.6597 31.8606 18.5057 31.8035 18.3591 31.7353C17.8859 31.5104 16.9786 31.3389 16.3031 31.3389C16.0025 31.3389 15.3475 31.2081 15.1007 31.1048C15.0172 31.068 14.8595 31.02 14.7593 30.9998C14.6609 30.9795 14.5459 30.9426 14.4976 30.9168C14.455 30.891 14.3251 30.8394 14.21 30.797C13.6849 30.609 13.5216 30.5408 13.1505 30.3491C12.9352 30.2348 12.7256 30.1408 12.6884 30.1408C12.6513 30.1408 12.5938 30.1094 12.5623 30.067C12.5252 30.0246 12.425 29.973 12.3415 29.9583C12.258 29.9362 12.1578 29.8845 12.1262 29.8329C12.0891 29.785 11.9685 29.702 11.8646 29.656C11.7588 29.608 11.5343 29.4163 11.3599 29.2283C10.9776 28.8117 10.8997 28.5868 10.9516 28.0135C10.972 27.7942 10.9887 27.5822 10.9887 27.5453C10.9887 27.0605 10.972 26.8412 10.9312 26.6218C10.9052 26.4762 10.8737 26.2789 10.857 26.1794C10.8106 25.8402 10.7791 25.7517 10.4636 25.0586C10.3541 24.8135 10.2484 24.6678 10.1482 24.6107C10.0016 24.5277 9.996 24.5167 10.0238 24.1775C10.0554 23.8439 10.0498 23.8346 9.90693 23.783C9.82899 23.7517 9.71951 23.7406 9.6657 23.7554C9.61375 23.7775 9.40963 24.0263 9.22036 24.3194C8.62843 25.2153 8.31855 25.5637 7.78229 25.9287C7.16438 26.3508 6.72275 26.4614 5.63167 26.4504C4.79851 26.4448 4.32534 26.408 4.07854 26.3305C3.98948 26.3047 3.86886 26.2734 3.81134 26.2623C3.75382 26.2476 3.50146 26.1536 3.26023 26.0485C2.54212 25.737 2.07451 25.2319 1.89081 24.5646C1.82401 24.3139 1.80731 23.4752 1.8704 23.313C1.89638 23.2411 1.92792 23.0844 1.93906 22.9646C1.94462 22.8447 1.99101 22.6715 2.03926 22.583C2.12833 22.4171 2.15987 22.3175 2.20626 22.0466C2.22296 21.9692 2.25451 21.9065 2.28048 21.9065C2.30646 21.9065 2.35285 21.8014 2.3844 21.6724C2.41594 21.5415 2.46419 21.4364 2.49016 21.4364C2.51614 21.4364 2.53655 21.3793 2.53655 21.3074C2.53655 21.1913 2.73139 20.7175 2.80376 20.6548C2.82046 20.6401 2.852 20.5719 2.86685 20.4982C2.89839 20.3783 3.33445 19.8364 3.66475 19.4991C3.73897 19.4253 3.88556 19.3166 3.99504 19.2631C4.45708 19.0235 4.76696 18.8576 4.79294 18.8318C4.83377 18.7838 5.38116 18.5294 5.51105 18.4926C5.66321 18.4502 6.15123 18.1165 6.27184 17.9764C6.53905 17.6594 7.12727 16.2879 7.26272 15.6575C7.34251 15.2814 7.67281 14.8188 8.11258 14.4593C8.82141 13.886 9.2148 13.7404 10.3003 13.6464C10.6269 13.615 11.1149 13.521 11.692 13.3754C11.7495 13.3644 12.0371 13.3385 12.3303 13.322C12.8462 13.2961 12.8722 13.2961 13.0243 13.4215C13.3917 13.7349 13.8204 13.6206 14.1043 13.145C14.1933 12.9994 14.3399 12.7597 14.429 12.6141C14.5236 12.4629 14.6498 12.2491 14.7073 12.1348C14.7648 12.0205 14.8966 11.7957 14.9968 11.639C15.0951 11.4823 15.2436 11.1855 15.316 10.9883C15.4625 10.5864 15.5201 10.4611 15.7297 10.0076C15.8522 9.75874 15.9673 9.63339 16.407 9.27394C17.0955 8.70987 17.3886 8.42415 17.8024 7.89326C18.3591 7.18357 18.784 6.83517 19.5077 6.48493C20.4411 6.03147 20.6823 5.92824 21.0237 5.8287C21.4115 5.71994 22.781 5.66648 23.243 5.74575C23.6568 5.81395 24.1615 6.04806 24.6069 6.38724C24.8017 6.53286 25.1728 6.76697 25.4363 6.90706C25.6924 7.05269 26.0394 7.26652 26.2008 7.38634C26.3585 7.50247 26.6536 7.71445 26.8521 7.86192C27.0507 8.00202 27.2566 8.16423 27.3086 8.21032C27.4292 8.33014 27.843 8.53844 28.1213 8.6177L28.3421 8.68406L28.0954 8.83522C27.6444 9.12278 27.4292 9.50251 27.5702 9.78455C27.6649 9.95598 28.1325 9.87856 28.7355 9.58178C29.1753 9.36242 29.307 9.32002 29.6225 9.3108C29.9008 9.29421 30.0103 9.3108 30.079 9.37163C30.1309 9.41956 30.2942 9.50251 30.4464 9.55966C30.6932 9.65367 30.7507 9.6592 30.9808 9.60205C31.1218 9.56519 31.2647 9.50251 31.2999 9.46196C31.3315 9.41956 31.3593 9.24813 31.363 9.07485C31.363 8.7836 31.3538 8.75227 31.1849 8.6177C30.8806 8.36147 30.22 8.30986 29.9472 8.51816C29.9212 8.53844 29.7895 8.53291 29.6596 8.51263C29.5279 8.48682 29.3646 8.48129 29.2922 8.49604L29.1605 8.52738L29.2755 8.42968C29.4184 8.30433 29.565 7.93381 29.6856 7.39187C29.7895 6.9384 29.9045 6.68402 30.0882 6.4794C30.2256 6.33378 30.6653 6.0628 30.7711 6.0628C30.8082 6.0628 30.9066 6.02594 30.9863 5.98538C31.1274 5.91165 31.2907 5.89137 32.1776 5.82317C32.5283 5.79736 32.9848 5.68307 33.0906 5.60012C33.1518 5.54666 33.5452 5.33283 34.1705 5.01025C34.6103 4.77614 34.7161 4.77061 35.5288 4.94204C36.0168 5.04158 36.2692 5.18721 36.4102 5.45818C36.5104 5.65173 37.2081 6.32825 37.4902 6.51074C37.6015 6.58447 37.7017 6.67296 37.7165 6.71535C37.7425 6.78171 38.3307 7.15776 38.4087 7.15776C38.4309 7.15776 38.5089 7.1891 38.5831 7.23149C38.7501 7.31997 39.7317 7.44901 40.036 7.42873C40.6762 7.37712 40.9063 7.34578 41.1475 7.26099C41.2477 7.22596 41.4147 7.18357 41.5149 7.15776C41.6151 7.13748 41.9343 7.05269 42.2238 6.9808C42.5114 6.90153 43.0105 6.80383 43.3241 6.76697C43.6451 6.72457 44.0329 6.65268 44.1907 6.61028C44.3484 6.5642 44.7251 6.49599 45.0294 6.4536C45.7791 6.35958 48.3824 6.30244 48.7498 6.37618C49.184 6.45913 49.6517 6.75591 49.8558 7.07481C49.9448 7.22043 50.1285 7.50615 50.2547 7.71077C50.3809 7.91354 50.5646 8.16423 50.6629 8.26746C50.8893 8.5071 51.0266 8.79835 51.1677 9.37163C51.2363 9.62786 51.3087 9.88409 51.3347 9.9357C51.4349 10.1274 51.8487 10.1753 51.8487 9.99285C51.8487 9.94123 51.8765 9.93017 51.9433 9.96704C52.1493 10.0813 52.3942 10.1809 52.4573 10.1809C52.4944 10.1809 52.6057 10.2122 52.6985 10.2528C52.8618 10.3265 53.0511 10.3984 53.1086 10.415C53.1865 10.4297 53.5131 10.6233 53.8007 10.8205C53.9844 10.9459 54.3778 11.1708 54.6821 11.3274C55.2852 11.6297 55.365 11.6924 55.7009 12.0924C56.0831 12.5459 56.9756 13.3441 57.3208 13.5321C57.7513 13.7717 58.1242 13.8805 58.6958 13.9376C58.9574 13.9634 59.2988 14.0058 59.4566 14.0316C59.8017 14.0833 60.4845 14.3137 60.5996 14.4169C60.6515 14.4593 60.7833 14.5312 60.8928 14.5791C61.0097 14.6252 61.2194 14.7616 61.3659 14.887C61.5125 15.0068 61.7278 15.1782 61.8428 15.2612C62.1212 15.4603 62.971 16.3082 63.1028 16.5165C63.1603 16.6105 63.2958 16.8188 63.4108 16.9866C63.5221 17.1525 63.6428 17.3773 63.6836 17.4861C63.7207 17.6022 63.7893 17.7534 63.832 17.8308C63.8728 17.9082 64.0046 18.1755 64.1141 18.4244C64.3237 18.8778 64.7598 19.4825 65.1217 19.8216C65.2274 19.9212 65.4519 20.2124 65.6208 20.4723C65.8082 20.7654 66.0717 21.077 66.3222 21.3074C67.2259 22.1406 67.4151 22.3489 67.6285 22.771C68.0126 23.5323 68.1704 24.1683 68.3578 25.7314C68.4431 26.4043 68.4431 26.4872 68.3634 26.8614V26.8614Z" fill="black"/>
<path d="M68.3578 25.7315C68.1704 24.1683 68.0127 23.5323 67.6286 22.771C67.4152 22.3489 67.2259 22.1406 66.3222 21.3074C66.0717 21.077 65.8082 20.7654 65.6208 20.4724C65.452 20.2124 65.2274 19.9212 65.1217 19.8216C64.7598 19.4825 64.3238 18.8778 64.1141 18.4244C64.0046 18.1755 63.8729 17.9082 63.832 17.8308C63.7894 17.7534 63.7207 17.6022 63.6836 17.4861C63.6428 17.3774 63.5222 17.1525 63.4108 16.9866C63.2958 16.8188 63.1603 16.6105 63.1028 16.5165C62.9711 16.3082 62.1212 15.4603 61.8429 15.2612C61.7278 15.1782 61.5126 15.0068 61.366 14.887C61.2194 14.7616 61.0097 14.6252 60.8928 14.5791C60.7833 14.5312 60.6516 14.4593 60.5996 14.4169C60.4846 14.3137 59.8017 14.0833 59.4566 14.0317C59.2989 14.0059 58.9574 13.9635 58.6958 13.9376C58.1243 13.8805 57.7513 13.7717 57.3208 13.5321C56.9757 13.3441 56.0831 12.5459 55.7009 12.0924C55.365 11.6924 55.2852 11.6298 54.6822 11.3274C54.3778 11.1708 53.9845 10.9459 53.8008 10.8205C53.5131 10.6233 53.1866 10.4297 53.1086 10.415C53.0511 10.3984 52.8618 10.3265 52.6985 10.2528C52.6058 10.2122 52.4944 10.1809 52.4573 10.1809C52.3942 10.1809 52.1493 10.0813 51.9433 9.96705C51.8765 9.93018 51.8487 9.94124 51.8487 9.99286C51.8487 10.1753 51.4349 10.1274 51.3347 9.93571C51.3087 9.8841 51.2363 9.62787 51.1677 9.37164C51.0267 8.79836 50.8894 8.50711 50.663 8.26747C50.5646 8.16424 50.3809 7.91355 50.2547 7.71078C50.1286 7.50616 49.9449 7.22044 49.8558 7.07482C49.6517 6.75592 49.1841 6.45914 48.7499 6.37619C48.3825 6.30245 45.7791 6.35959 45.0294 6.45361C44.7251 6.496 44.3484 6.56421 44.1907 6.61029C44.033 6.65269 43.6452 6.72458 43.3241 6.76698C43.0105 6.80384 42.5114 6.90154 42.2238 6.98081C41.9343 7.0527 41.6151 7.13749 41.5149 7.15777C41.4147 7.18358 41.2477 7.22597 41.1475 7.261C40.9063 7.34579 40.6762 7.37713 40.036 7.42874C39.7317 7.44902 38.7501 7.31999 38.5831 7.2315C38.5089 7.18911 38.431 7.15777 38.4087 7.15777C38.3308 7.15777 37.7425 6.78172 37.7166 6.71536C37.7017 6.67297 37.6015 6.58448 37.4902 6.51075C37.2081 6.32826 36.5104 5.65175 36.4102 5.45819C36.2692 5.18722 36.0169 5.04159 35.5288 4.94205C34.7161 4.77062 34.6103 4.77615 34.1705 5.01026C33.5452 5.33284 33.1518 5.54667 33.0906 5.60013C32.9848 5.68308 32.5284 5.79737 32.1777 5.82318C31.2907 5.89138 31.1274 5.91166 30.9864 5.98539C30.9066 6.02595 30.8082 6.06281 30.7711 6.06281C30.6654 6.06281 30.2256 6.33379 30.0883 6.47941C29.9046 6.68403 29.7895 6.93841 29.6856 7.39188C29.565 7.93382 29.4184 8.30434 29.2755 8.42969L29.1605 8.52739L29.2922 8.49605C29.3646 8.4813 29.5279 8.48683 29.6596 8.51264C29.7895 8.53292 29.9213 8.53845 29.9472 8.51817C30.22 8.30987 30.8806 8.36148 31.1849 8.61771C31.3538 8.75228 31.3631 8.78361 31.3631 9.07486C31.3593 9.24814 31.3315 9.41957 31.3 9.46197C31.2647 9.50252 31.1218 9.5652 30.9808 9.60206C30.7507 9.65921 30.6932 9.65368 30.4464 9.55967C30.2942 9.50252 30.1309 9.41957 30.079 9.37164C30.0103 9.31081 29.9009 9.29422 29.6225 9.31081C29.3071 9.32003 29.1753 9.36243 28.7355 9.58179C28.1325 9.87857 27.6649 9.95599 27.5702 9.78456C27.4292 9.50252 27.6445 9.12279 28.0954 8.83523L28.3422 8.68407L28.1213 8.61771C27.843 8.53845 27.4292 8.33015 27.3086 8.21033C27.2566 8.16424 27.0507 8.00203 26.8521 7.86193C26.6536 7.71446 26.3585 7.50248 26.2008 7.38635C26.0394 7.26653 25.6924 7.0527 25.4363 6.90707C25.1728 6.76698 24.8017 6.53287 24.6069 6.38725C24.1615 6.04807 23.6568 5.81396 23.243 5.74576C22.781 5.66649 21.4116 5.71995 21.0237 5.82871C20.6823 5.92825 20.4411 6.03148 19.5077 6.48494C18.7841 6.83518 18.3591 7.18358 17.8025 7.89327C17.3887 8.42416 17.0955 8.70988 16.4071 9.27395C15.9673 9.6334 15.8522 9.75875 15.7298 10.0076C15.5201 10.4611 15.4626 10.5864 15.316 10.9883C15.2436 11.1855 15.0952 11.4823 14.9968 11.639C14.8966 11.7957 14.7649 12.0206 14.7073 12.1348C14.6498 12.2491 14.5236 12.463 14.429 12.6141C14.3399 12.7597 14.1933 12.9994 14.1043 13.145C13.8204 13.6206 13.3917 13.7349 13.0243 13.4215C12.8722 13.2962 12.8462 13.2962 12.3303 13.322C12.0372 13.3386 11.7495 13.3644 11.692 13.3754C11.1149 13.521 10.6269 13.6151 10.3003 13.6464C9.21482 13.7404 8.82143 13.886 8.1126 14.4593C7.67283 14.8188 7.34253 15.2815 7.26274 15.6575C7.12729 16.2879 6.53907 17.6594 6.27186 17.9764C6.15125 18.1165 5.66323 18.4502 5.51107 18.4926C5.38118 18.5295 4.83379 18.7838 4.79296 18.8318C4.76698 18.8576 4.4571 19.0235 3.99506 19.2631C3.88558 19.3166 3.73899 19.4253 3.66477 19.4991C3.33447 19.8364 2.89841 20.3783 2.86687 20.4982C2.85202 20.5719 2.82048 20.6401 2.80378 20.6548C2.73141 20.7175 2.53657 21.1913 2.53657 21.3074C2.53657 21.3793 2.51616 21.4364 2.49018 21.4364C2.46421 21.4364 2.41596 21.5415 2.38442 21.6724C2.35287 21.8014 2.30648 21.9065 2.2805 21.9065C2.25453 21.9065 2.22298 21.9692 2.20628 22.0466C2.15989 22.3176 2.12835 22.4171 2.03928 22.583C1.99103 22.6715 1.94464 22.8448 1.93908 22.9646C1.92794 23.0844 1.8964 23.2411 1.87042 23.313C1.80733 23.4752 1.82403 24.3139 1.89083 24.5646C2.07453 25.2319 2.54214 25.737 3.26025 26.0485C3.50148 26.1536 3.75384 26.2476 3.81136 26.2623C3.86888 26.2734 3.98949 26.3047 4.07856 26.3305C4.32536 26.408 4.79853 26.4448 5.63169 26.4504C6.72277 26.4614 7.1644 26.3508 7.78231 25.9287C8.31857 25.5637 8.62845 25.2153 9.22038 24.3194C9.40965 24.0263 9.61377 23.7775 9.66572 23.7554C9.71953 23.7406 9.82901 23.7517 9.90695 23.783C10.0498 23.8346 10.0554 23.8439 10.0239 24.1775C9.99602 24.5167 10.0016 24.5277 10.1482 24.6107C10.2484 24.6678 10.3541 24.8135 10.4636 25.0586C10.7791 25.7517 10.8106 25.8402 10.857 26.1794C10.8737 26.2789 10.9053 26.4762 10.9312 26.6218C10.9721 26.8412 10.9888 27.0605 10.9888 27.5453C10.9888 27.5822 10.9721 27.7942 10.9516 28.0135C10.8997 28.5868 10.9776 28.8117 11.3599 29.2283C11.5343 29.4163 11.7588 29.608 11.8646 29.656C11.9685 29.7021 12.0891 29.785 12.1262 29.8329C12.1578 29.8845 12.258 29.9362 12.3415 29.9583C12.425 29.973 12.5252 30.0246 12.5623 30.067C12.5938 30.1094 12.6514 30.1408 12.6885 30.1408C12.7256 30.1408 12.9353 30.2348 13.1505 30.3491C13.5216 30.5408 13.6849 30.609 14.21 30.797C14.3251 30.8394 14.455 30.891 14.4977 30.9168C14.5459 30.9426 14.661 30.9795 14.7593 30.9998C14.8595 31.0201 15.0172 31.068 15.1007 31.1049C15.3475 31.2081 16.0025 31.339 16.3031 31.339C16.9786 31.339 17.886 31.5104 18.3591 31.7353C18.5057 31.8035 18.6579 31.8606 18.7006 31.8606C18.7432 31.8606 18.8843 31.8956 19.0253 31.938C19.1607 31.9804 19.3816 32.0523 19.5244 32.0947C19.6599 32.1353 19.8436 32.1722 19.9271 32.1722C20.159 32.1722 20.7937 32.3602 20.9031 32.4652C20.9607 32.5169 21.0126 32.5427 21.0237 32.5316C21.0349 32.5224 21.1295 32.3233 21.2279 32.1003C21.4227 31.656 21.727 31.2873 21.8903 31.2873C21.9478 31.2873 22.0517 31.3076 22.1204 31.3334C22.267 31.3906 22.2726 31.4643 22.1352 32.2146C22.0425 32.7086 22.0573 33.398 22.1631 33.5012C22.1891 33.527 22.2095 33.6008 22.2095 33.669C22.2095 33.7372 22.267 33.9031 22.3412 34.0376C22.408 34.174 22.4822 34.3621 22.4971 34.4598C22.5138 34.5593 22.5509 34.6736 22.5713 34.7215C22.614 34.7989 22.6492 34.9925 22.7123 35.5344C22.7346 35.6745 22.7717 35.8368 22.7977 35.8884C22.8237 35.94 22.8608 36.0506 22.87 36.1225C22.8867 36.2017 22.9183 36.2847 22.9387 36.316C22.9591 36.3418 23.0129 36.4506 23.0482 36.5501C23.0909 36.6497 23.1744 36.8008 23.243 36.8783C23.3117 36.9612 23.3636 37.0497 23.3636 37.0773C23.3636 37.1972 23.7626 37.6506 24.2135 38.0451C24.3656 38.1815 24.7961 38.3585 25.1691 38.4377C25.3157 38.4672 26.0023 38.4986 26.6944 38.5041C27.3865 38.5096 28.1956 38.5299 28.4888 38.5576C28.9879 38.5926 29.051 38.5889 29.4704 38.458C29.8637 38.3327 30.0215 38.3124 30.7711 38.2903C32.1721 38.2589 32.6174 38.2276 32.8642 38.1612C32.9904 38.1244 33.1518 38.0875 33.2261 38.082C33.3003 38.0764 33.5823 38.0562 33.8551 38.0414C34.7847 37.9787 35.7181 37.8479 35.8907 37.7538C35.9538 37.7225 36.054 37.6967 36.1226 37.6967C36.2265 37.6967 36.6719 37.4571 36.8723 37.2949C36.9354 37.2432 38.199 36.1022 38.3363 35.9768C38.4254 35.8884 38.4198 35.8828 38.0951 35.7741C37.7054 35.6432 37.0077 35.2635 36.9298 35.1326C36.8148 34.939 36.9669 34.9298 37.3696 35.1013C37.8947 35.3206 38.4569 35.3317 39.06 35.1271C39.2808 35.0552 39.6835 34.9556 39.9507 34.904C40.2197 34.8561 40.487 34.7934 40.5445 34.7621C40.6762 34.6902 41.1995 34.7105 41.2941 34.7934C41.4092 34.8874 41.3424 35.3003 41.1902 35.4202C41.1271 35.4718 41.0009 35.5713 40.9174 35.6432C40.8377 35.7114 40.743 35.7685 40.7078 35.7685C40.6391 35.7741 40.9379 36.0285 41.0121 36.0285C41.0381 36.0285 41.1327 36.0819 41.2218 36.1483C41.3108 36.2165 41.5038 36.3363 41.6467 36.4193C41.7933 36.5077 41.951 36.5981 41.9974 36.6276C42.0494 36.6552 42.1755 36.7437 42.2869 36.8156C42.7693 37.1437 43.519 37.6027 43.8752 37.7797C43.9754 37.8331 44.0701 37.8903 44.0849 37.905C44.1016 37.9253 44.148 37.9566 44.1907 37.9787C44.3892 38.0727 44.9459 38.4672 45.1612 38.6718C45.4543 38.9428 45.6009 39.0092 45.8589 38.9797C45.9943 38.9576 46.1632 38.9428 46.2355 38.9428C46.3098 38.9373 46.5343 38.917 46.7347 38.8894C46.9388 38.8691 47.605 38.8322 48.2247 38.8175C49.3158 38.7861 49.3566 38.7806 49.7463 38.6294C50.1972 38.4525 50.5015 38.2903 51.3143 37.8018C51.9656 37.411 52.474 36.9262 52.7208 36.4672C53.0771 35.8054 53.2497 35.4404 53.2979 35.2321C53.3127 35.1529 53.3499 35.0754 53.3758 35.0607C53.4705 35.0017 53.4185 34.893 53.2719 34.8358C53.0196 34.7307 52.7041 34.3879 52.5946 34.0911C52.474 33.7777 52.5 33.7095 52.7728 33.6524C52.8785 33.6321 52.962 33.6468 53.0084 33.6948C53.0511 33.7353 53.1717 33.8201 53.2756 33.8828C53.5391 34.0432 54.2257 34.0487 54.7712 33.892C54.9809 33.8349 55.1962 33.7888 55.2481 33.7888C55.3427 33.7888 55.7102 33.3722 56.0349 32.8966C56.1833 32.6791 56.3448 32.5113 56.7957 32.1003C56.8755 32.0265 56.9794 31.9639 57.022 31.9639C57.0592 31.9639 57.0963 31.9436 57.0963 31.9178C57.0963 31.8643 57.4414 31.6523 57.5249 31.6523C57.5565 31.6523 57.6567 31.5933 57.7457 31.5325C57.8348 31.4643 57.9925 31.3703 58.0927 31.3224C58.4601 31.1454 58.9834 30.6514 59.2413 30.2293C59.3508 30.0468 59.3564 30.0357 59.2617 29.9988C59.0947 29.9362 58.5529 29.5564 58.4063 29.3942C58.2764 29.2486 58.2542 29.2431 58.0927 29.2965C57.5305 29.4938 56.7808 29.1546 56.7808 28.7122C56.7808 28.5555 56.7957 28.5241 56.8959 28.5241C56.959 28.5241 57.0592 28.5721 57.1223 28.6292C57.2058 28.7066 57.3412 28.7435 57.5936 28.7693L57.9498 28.8007L57.8088 28.5721C57.5361 28.1334 57.4897 28.008 57.562 27.9361C57.614 27.8845 57.6678 27.9195 57.82 28.1075C58.2764 28.6698 58.4026 28.7583 58.8851 28.8523C59.1263 28.9002 59.6087 28.9518 59.9539 28.9684C60.3009 28.9831 60.6423 29.0034 60.7147 29.0145C60.7889 29.0311 61.0932 29.0772 61.3975 29.1232C61.7018 29.1767 62.021 29.2431 62.1045 29.2855C62.1954 29.3223 62.5573 29.4311 62.9191 29.5251C63.485 29.6652 63.6576 29.6928 64.2032 29.6873C64.7858 29.6818 64.9862 29.6615 65.6468 29.5196C65.8825 29.4735 66.3538 29.3223 66.4651 29.2596C66.8474 29.0403 67.4467 28.5924 67.6137 28.3951C67.9867 27.9361 68.2483 27.4034 68.3634 26.8614C68.4432 26.4872 68.4432 26.4043 68.3578 25.7315V25.7315ZM12.1633 20.3433C12.0112 20.3433 11.9648 20.3747 11.8275 20.5664C11.5974 20.9 11.2615 21.5931 11.2188 21.818C11.1409 22.2291 10.7475 22.2604 10.5842 21.8696C10.4896 21.6503 10.51 21.4733 10.6993 20.9682C10.998 20.1664 11.7069 19.6502 12.1782 19.8954C12.2691 19.9415 12.4305 19.9783 12.5363 19.9783C12.7033 19.9783 12.7775 19.9304 13.1654 19.5507C13.401 19.3166 13.6534 19.0917 13.722 19.0548C13.7888 19.0198 13.9373 18.9921 14.0523 19.0032C14.2193 19.0143 14.262 19.0345 14.262 19.112C14.262 19.1894 14.1989 19.2318 14.0152 19.2852C13.8259 19.3368 13.6534 19.4622 13.3027 19.7848C12.8239 20.2272 12.5938 20.3433 12.1633 20.3433V20.3433ZM14.724 29.8587C14.5496 29.8901 13.9002 29.5822 13.5532 29.3113C13.2025 29.0255 12.72 28.5352 12.6309 28.3582C12.5419 28.1868 12.5103 27.4974 12.5734 27.149C12.6198 26.9094 12.8091 26.1997 12.8777 26.0338C12.9353 25.8937 13.1338 25.8771 13.26 26.0135C13.3324 26.0964 13.3435 26.2218 13.3324 26.8098C13.3231 27.3886 13.3379 27.5398 13.4121 27.6799C13.5587 27.9453 14.5144 28.8689 14.917 29.1288C15.1174 29.2596 15.2844 29.3739 15.2844 29.3905C15.2844 29.5417 14.9541 29.8163 14.724 29.8587V29.8587ZM25.2211 31.8698C25.1895 32.0321 25.158 32.0689 24.9687 32.1353C24.4232 32.3344 23.8034 32.2662 23.5937 31.9804C23.4842 31.8348 23.2003 31.256 23.1335 31.0366C23.0909 30.9058 22.9183 30.8173 22.6919 30.8173C22.3468 30.8118 21.7734 30.4523 21.868 30.2975C21.9163 30.2182 22.0313 30.2348 22.1037 30.3233C22.1779 30.4117 22.5973 30.5408 22.9703 30.5887C23.217 30.6145 23.2579 30.6459 23.6624 31.0625L24.0929 31.5049L24.5957 31.5159C25.184 31.5325 25.2675 31.5786 25.2211 31.8698V31.8698ZM33.252 36.8635C32.9013 36.8635 32.4912 36.9667 32.1238 37.1492C31.9939 37.2119 31.6637 37.3428 31.3909 37.4368C30.4724 37.7483 29.8007 37.6451 29.3238 37.1234C29.1178 36.9004 29.0287 36.5981 29.1345 36.4727C29.2236 36.3621 29.2867 36.3732 29.5427 36.5501C29.8582 36.7584 30.1198 36.7842 31.2332 36.7068C31.7676 36.67 32.571 36.6276 33.0164 36.6239C33.8087 36.6017 34.3338 36.5133 34.5899 36.3418C34.6994 36.2681 34.9573 36.2792 34.9573 36.3529C34.9573 36.504 33.7456 36.8635 33.252 36.8635V36.8635ZM49.6572 37.3944C49.494 37.5197 49.3529 37.634 49.3418 37.6543C49.3307 37.682 49.2898 37.6967 49.2472 37.6967C49.2045 37.6967 49.121 37.7446 49.0635 37.7962C48.8649 37.9787 48.5495 38.0193 47.2951 38.0248C46.1316 38.0248 46.089 38.0248 45.8737 37.905C45.4599 37.6709 45.5694 37.3741 46.0741 37.3575C46.204 37.352 46.5621 37.3225 46.8664 37.2912C47.1708 37.2543 47.6569 37.2064 47.9575 37.175C48.2563 37.1437 48.5606 37.0921 48.6385 37.0497C48.7183 37.0147 48.8538 36.9667 48.9373 36.9465C49.1785 36.8893 49.9449 36.4561 50.0395 36.3271C50.0822 36.2644 50.1174 36.1759 50.1174 36.1335C50.1174 36.0856 50.1453 36.0248 50.1805 35.9879C50.2603 35.9086 50.2863 35.9086 50.3902 35.9879C50.7168 36.2478 50.4125 36.8211 49.6572 37.3944V37.3944ZM52.8154 16.8723C52.6781 16.9128 52.5835 16.8151 52.4054 16.4336C52.2792 16.1736 51.6873 15.3865 51.331 15.0105C51.2568 14.9331 51.0526 14.7985 50.8782 14.7137C50.5739 14.5625 50.5535 14.5625 50.2752 14.6252C50.1174 14.6676 49.9337 14.7248 49.8669 14.7616C49.7983 14.7985 49.5403 14.839 49.2898 14.8556C48.8742 14.8814 48.8018 14.8704 48.4919 14.745C48.0837 14.5736 47.8777 14.522 47.4955 14.4741C47.18 14.4427 46.8664 14.3284 46.8034 14.2289C46.6456 13.98 46.9073 13.6409 47.3174 13.5671C47.4584 13.5413 47.7571 13.5321 47.9779 13.5413C48.3286 13.5579 48.4344 13.5837 48.722 13.7441C49.0894 13.9487 49.3789 13.9837 49.8985 13.8916C50.4329 13.7976 50.8894 13.8952 51.6075 14.2602C52.0695 14.4999 52.5946 14.9496 52.7412 15.2354C52.8934 15.5266 53.0029 16.0225 53.0029 16.3875C53.0029 16.7525 52.9769 16.8188 52.8154 16.8723ZM66.4169 26.3508C66.2554 26.6642 65.7507 27.1693 65.6097 27.1693C65.5522 27.1693 65.5633 27.1951 65.6524 27.2633C65.7247 27.326 65.7563 27.3942 65.7359 27.4458C65.7099 27.514 65.6412 27.5232 65.2942 27.4974C64.7858 27.4624 64.5965 27.3684 64.5965 27.1379C64.5965 26.9352 64.7487 26.7379 65.0437 26.5647C65.3258 26.4043 65.6153 26.0909 65.7303 25.831C65.8769 25.4918 65.888 24.7674 65.7507 24.1425C65.5577 23.2411 65.3833 22.583 65.2534 22.2604C65.0011 21.641 64.3609 20.8281 63.9675 20.6143C63.7634 20.5037 63.7059 20.3525 63.832 20.2585C63.9044 20.2069 63.9731 20.218 64.1883 20.312C64.5335 20.4521 64.8285 20.7175 65.2998 21.3019C65.7247 21.8272 65.9827 22.2973 66.1868 22.9222C66.7787 24.7305 66.8381 25.5692 66.4169 26.3508Z" fill="#944962"/>
<path d="M53.0029 16.3875C53.0029 16.758 52.9769 16.8188 52.8155 16.8723C52.6782 16.9128 52.5835 16.8151 52.4054 16.4336C52.2792 16.1736 51.6873 15.3865 51.331 15.0105C51.2568 14.9331 51.0527 14.7985 50.8782 14.7137C50.5739 14.5625 50.5535 14.5625 50.2752 14.6252C50.1174 14.6676 49.9337 14.7248 49.8669 14.7616C49.7983 14.7985 49.5404 14.8391 49.2899 14.8556C48.8742 14.8814 48.8018 14.8704 48.492 14.745C48.0837 14.5736 47.8778 14.522 47.4955 14.4741C47.1801 14.4427 46.8665 14.3284 46.8034 14.2289C46.6457 13.98 46.9073 13.6409 47.3174 13.5671C47.4584 13.5413 47.7571 13.5321 47.978 13.5413C48.3287 13.5579 48.4344 13.5837 48.7221 13.7441C49.0895 13.9487 49.3789 13.9837 49.8985 13.8916C50.4329 13.7976 50.8894 13.8953 51.6075 14.2602C52.0695 14.4999 52.5947 14.9497 52.7412 15.2354C52.8934 15.5266 53.0029 16.0225 53.0029 16.3875Z" fill="black"/>
<path d="M14.262 19.112C14.262 19.1857 14.1989 19.2318 14.0152 19.2852C13.826 19.3369 13.6534 19.4622 13.3027 19.7848C12.824 20.2272 12.5939 20.3433 12.1634 20.3433C12.0112 20.3433 11.9648 20.3747 11.8275 20.5664C11.5974 20.9 11.2616 21.5931 11.2189 21.818C11.1409 22.2291 10.7476 22.2604 10.5843 21.8696C10.4896 21.6503 10.51 21.4733 10.6993 20.9682C10.9981 20.1664 11.7069 19.6502 12.1782 19.8954C12.2691 19.9415 12.4306 19.9783 12.5363 19.9783C12.7033 19.9783 12.7776 19.9304 13.1654 19.5507C13.401 19.3166 13.6534 19.0917 13.7221 19.0548C13.7889 19.0198 13.9373 18.9921 14.0524 19.0032C14.2194 19.0143 14.262 19.0345 14.262 19.112V19.112Z" fill="black"/>
<path d="M66.4169 26.3508C66.2554 26.6642 65.7507 27.1692 65.6097 27.1692C65.5522 27.1692 65.5633 27.1951 65.6524 27.2633C65.7247 27.3259 65.7563 27.3941 65.7359 27.4458C65.7099 27.514 65.6412 27.5232 65.2942 27.4974C64.7858 27.4623 64.5965 27.3683 64.5965 27.1379C64.5965 26.9351 64.7487 26.7379 65.0437 26.5646C65.3258 26.4043 65.6152 26.0909 65.7303 25.831C65.8769 25.4918 65.888 24.7674 65.7507 24.1425C65.5577 23.241 65.3833 22.583 65.2534 22.2604C65.001 21.641 64.3609 20.8281 63.9675 20.6143C63.7634 20.5037 63.7059 20.3525 63.832 20.2585C63.9044 20.2069 63.9731 20.2179 64.1883 20.312C64.5334 20.452 64.8285 20.7175 65.2998 21.3018C65.7247 21.8272 65.9827 22.2972 66.1868 22.9221C66.7787 24.7305 66.8381 25.5692 66.4169 26.3508Z" fill="black"/>
<path d="M15.2844 29.3905C15.2844 29.5417 14.9541 29.8164 14.724 29.8588C14.5496 29.8901 13.9002 29.5822 13.5532 29.3113C13.2025 29.0256 12.72 28.5352 12.6309 28.3583C12.5419 28.1868 12.5103 27.4974 12.5734 27.149C12.6198 26.9094 12.8091 26.1997 12.8777 26.0338C12.9353 25.8937 13.1338 25.8771 13.26 26.0135C13.3324 26.0965 13.3435 26.2218 13.3324 26.8098C13.3231 27.3887 13.3379 27.5398 13.4121 27.6799C13.5587 27.9453 14.5144 28.8689 14.917 29.1288C15.1174 29.2597 15.2844 29.374 15.2844 29.3905V29.3905Z" fill="black"/>
<path d="M25.2211 31.8698C25.1896 32.0321 25.158 32.0689 24.9687 32.1353C24.4232 32.3344 23.8034 32.2662 23.5938 31.9804C23.4843 31.8348 23.2004 31.256 23.1336 31.0366C23.0909 30.9058 22.9183 30.8173 22.6919 30.8173C22.3468 30.8118 21.7734 30.4523 21.8681 30.2975C21.9163 30.2182 22.0314 30.2348 22.1037 30.3233C22.1779 30.4117 22.5973 30.5408 22.9703 30.5887C23.2171 30.6145 23.2579 30.6459 23.6624 31.0625L24.0929 31.5049L24.5958 31.5159C25.184 31.5325 25.2675 31.5786 25.2211 31.8698V31.8698Z" fill="black"/>
<path d="M49.6572 37.3944C49.494 37.5197 49.3529 37.634 49.3418 37.6543C49.3307 37.682 49.2898 37.6967 49.2472 37.6967C49.2045 37.6967 49.121 37.7446 49.0635 37.7963C48.8649 37.9787 48.5495 38.0193 47.2951 38.0248C46.1316 38.0248 46.089 38.0248 45.8737 37.905C45.4599 37.6709 45.5694 37.3741 46.0741 37.3575C46.204 37.352 46.5621 37.3225 46.8665 37.2912C47.1708 37.2543 47.6569 37.2064 47.9575 37.175C48.2563 37.1437 48.5606 37.0921 48.6385 37.0497C48.7183 37.0147 48.8538 36.9667 48.9373 36.9465C49.1785 36.8893 49.9449 36.4561 50.0395 36.3271C50.0822 36.2644 50.1174 36.1759 50.1174 36.1335C50.1174 36.0856 50.1453 36.0248 50.1805 35.9879C50.2603 35.9087 50.2863 35.9087 50.3902 35.9879C50.7168 36.2478 50.4125 36.8211 49.6572 37.3944V37.3944Z" fill="black"/>
<path d="M34.9573 36.3529C34.9573 36.504 33.7456 36.8635 33.2521 36.8635C32.9013 36.8635 32.4913 36.9667 32.1239 37.1492C31.994 37.2119 31.6637 37.3428 31.3909 37.4368C30.4724 37.7483 29.8007 37.6451 29.3238 37.1234C29.1178 36.9004 29.0287 36.5981 29.1345 36.4727C29.2236 36.3621 29.2867 36.3732 29.5427 36.5501C29.8582 36.7584 30.1198 36.7842 31.2332 36.7068C31.7676 36.6699 32.5711 36.6275 33.0164 36.6239C33.8087 36.6017 34.3339 36.5133 34.5899 36.3418C34.6994 36.2681 34.9573 36.2792 34.9573 36.3529V36.3529Z" fill="black"/>
<path d="M63.0601 32.845C62.8616 32.3971 62.483 32.1408 61.6072 31.8643C61.507 31.8348 61.2769 31.7611 61.0988 31.704C60.6942 31.5731 60.2433 31.5731 59.9223 31.6984C59.6496 31.8035 59.592 31.8441 59.2784 32.1464C59.1615 32.257 58.9741 32.4284 58.8628 32.5224C58.564 32.7713 58.2597 33.1528 58.1243 33.4496C57.9758 33.7667 57.8552 34.4874 57.8979 34.8303C57.935 35.1216 58.0612 35.4036 58.1595 35.4036C58.1966 35.4036 58.3655 35.5345 58.5325 35.6911C59.0688 36.1962 59.1151 36.211 60.2693 36.2054C61.3715 36.2054 61.8484 36.1225 62.3105 35.8515C62.8875 35.5123 63.1919 34.7676 63.1919 33.6837C63.1919 33.2155 63.1696 33.0902 63.0601 32.845V32.845ZM62.1156 34.9133C61.9746 35.1805 61.5905 35.2838 60.6738 35.2948C60.0077 35.3004 59.4083 35.2063 58.8943 35.0128C58.8535 34.998 58.9203 34.8303 59.104 34.5077C59.2506 34.2423 59.4139 33.9547 59.4566 33.8773C59.4974 33.7943 59.5661 33.7095 59.6143 33.6837C59.6551 33.6635 59.8908 33.4644 60.1376 33.2469C60.3844 33.033 60.5996 32.8505 60.62 32.8505C60.6367 32.8505 60.8984 32.9077 61.1971 32.9796C61.4922 33.0533 61.7965 33.127 61.8688 33.1418C62.136 33.1934 62.1843 33.2247 62.2158 33.3611C62.2307 33.4386 62.2678 33.5529 62.2938 33.6211C62.394 33.8607 62.2938 34.5759 62.1156 34.9133V34.9133Z" fill="black"/>
<path d="M62.1156 34.9132C61.9746 35.1805 61.5905 35.2838 60.6738 35.2948C60.0077 35.3003 59.4083 35.2063 58.8943 35.0128C58.8535 34.998 58.9203 34.8303 59.104 34.5077C59.2506 34.2423 59.4139 33.9547 59.4566 33.8773C59.4974 33.7943 59.566 33.7095 59.6143 33.6837C59.6551 33.6634 59.8908 33.4644 60.1376 33.2468C60.3844 33.033 60.5996 32.8505 60.62 32.8505C60.6367 32.8505 60.8984 32.9077 61.1971 32.9796C61.4921 33.0533 61.7965 33.127 61.8688 33.1418C62.136 33.1934 62.1843 33.2247 62.2158 33.3611C62.2307 33.4386 62.2678 33.5528 62.2938 33.621C62.394 33.8607 62.2938 34.5759 62.1156 34.9132V34.9132Z" fill="#6C3145"/>
<path d="M20.4467 37.4884C20.378 37.3004 20.3001 37.0294 20.2685 36.8893C20.0904 36.0911 19.4242 35.2727 18.669 34.9243C17.9917 34.6164 17.7561 34.5759 16.4126 34.5482C15.5516 34.5335 15.1323 34.5445 14.943 34.5906C14.802 34.6275 14.5608 34.716 14.4142 34.7897C14.0579 34.9704 13.5383 35.5289 13.427 35.8515C13.3324 36.1335 13.3175 36.6128 13.401 36.764C13.4381 36.8322 13.4381 36.8893 13.4066 36.9299C13.2915 37.0718 13.0819 37.6709 13.0503 37.9566C13.028 38.1391 13.0447 38.4064 13.0819 38.6184C13.1505 38.9741 13.3175 39.4165 13.3862 39.4165C13.4066 39.4165 13.4585 39.4847 13.5124 39.5677C13.6274 39.776 13.8 39.8534 14.4457 39.9898C14.75 40.0525 15.0228 40.1262 15.0488 40.1465C15.0803 40.1668 15.2065 40.2147 15.3364 40.2497C15.4681 40.2811 15.6834 40.3548 15.8207 40.4064C15.9562 40.4636 16.125 40.5115 16.1918 40.5115C16.266 40.5115 16.4071 40.5484 16.5128 40.5889C16.6167 40.6313 16.8747 40.7032 17.0843 40.7511C17.2885 40.7972 17.5557 40.8599 17.6726 40.8857C17.9342 40.9484 18.374 40.9963 18.7469 41C19.3723 41.0111 20.1943 40.4064 20.5988 39.6451C20.7714 39.3115 20.7937 39.2285 20.7937 38.8893C20.7937 38.5096 20.7398 38.2866 20.4467 37.4884V37.4884ZM19.1607 39.0995C19.1032 39.2027 18.9733 39.3594 18.8676 39.4368C18.6894 39.5788 18.6634 39.5824 18.3072 39.5566C17.3052 39.4682 16.6167 39.3281 15.5739 38.9999C15.3995 38.9483 15.1174 38.8746 14.943 38.8433C14.7704 38.8064 14.5775 38.7695 14.5144 38.7603C14.3307 38.7234 14.288 38.5778 14.2731 37.9105C14.262 37.4995 14.236 37.2598 14.1933 37.2174C14.1618 37.1861 14.1303 37.0497 14.1303 36.9206C14.1303 36.5446 14.403 36.1649 14.891 35.8736C15.0952 35.7483 15.1323 35.7427 16.1343 35.7427C16.7021 35.7427 17.1845 35.7225 17.2105 35.6948C17.2309 35.6745 17.4295 35.6635 17.6447 35.6801C17.9453 35.7003 18.1123 35.7427 18.348 35.8626C18.7525 36.0709 18.836 36.1538 18.9882 36.4874C19.0995 36.7326 19.1144 36.8266 19.0939 37.1713C19.0828 37.411 19.1144 37.8331 19.1719 38.2331L19.2721 38.9004L19.1607 39.0995Z" fill="black"/>
<path d="M19.2721 38.9004L19.1607 39.0995C19.1032 39.2027 18.9733 39.3594 18.8676 39.4368C18.6894 39.5788 18.6634 39.5824 18.3072 39.5566C17.3052 39.4682 16.6167 39.3281 15.5739 38.9999C15.3995 38.9483 15.1174 38.8746 14.943 38.8433C14.7704 38.8064 14.5774 38.7695 14.5144 38.7603C14.3307 38.7234 14.288 38.5778 14.2731 37.9105C14.262 37.4995 14.236 37.2598 14.1933 37.2174C14.1618 37.1861 14.1302 37.0497 14.1302 36.9206C14.1302 36.5446 14.403 36.1649 14.891 35.8736C15.0952 35.7483 15.1323 35.7427 16.1343 35.7427C16.7021 35.7427 17.1845 35.7225 17.2105 35.6948C17.2309 35.6745 17.4295 35.6635 17.6447 35.6801C17.9453 35.7003 18.1123 35.7427 18.348 35.8625C18.7525 36.0708 18.836 36.1538 18.9882 36.4874C19.0995 36.7326 19.1143 36.8266 19.0939 37.1713C19.0828 37.411 19.1143 37.8331 19.1719 38.2331L19.2721 38.9004Z" fill="#6C3145"/>
</g>
<circle cx="26" cy="20" r="2.5" fill="#D9D9D9" stroke="black"/>
<circle cx="35" cy="20" r="2.5" fill="#D9D9D9" stroke="black"/>
<circle cx="44" cy="20" r="2.5" fill="#D9D9D9" stroke="black"/>
<path d="M53.0029 16.3875C53.0029 16.758 52.9769 16.8188 52.8155 16.8723C52.6782 16.9128 52.5835 16.8151 52.4054 16.4336C52.2792 16.1736 51.6873 15.3865 51.331 15.0105C51.2568 14.9331 51.0527 14.7985 50.8782 14.7137C50.5739 14.5625 50.5535 14.5625 50.2752 14.6252C50.1174 14.6676 49.9337 14.7248 49.8669 14.7616C49.7983 14.7985 49.5404 14.8391 49.2899 14.8556C48.8742 14.8814 48.8018 14.8704 48.492 14.745C48.0837 14.5736 47.8778 14.522 47.4955 14.4741C47.1801 14.4427 46.8665 14.3284 46.8034 14.2289C46.6457 13.98 46.9073 13.6409 47.3174 13.5671C47.4584 13.5413 47.7571 13.5321 47.978 13.5413C48.3287 13.5579 48.4344 13.5837 48.7221 13.7441C49.0895 13.9487 49.3789 13.9837 49.8985 13.8916C50.4329 13.7976 50.8894 13.8953 51.6075 14.2602C52.0695 14.4999 52.5947 14.9497 52.7412 15.2354C52.8934 15.5266 53.0029 16.0225 53.0029 16.3875Z" fill="black"/>
<path d="M14.262 19.112C14.262 19.1857 14.1989 19.2318 14.0152 19.2852C13.826 19.3369 13.6534 19.4622 13.3027 19.7848C12.824 20.2272 12.5939 20.3433 12.1634 20.3433C12.0112 20.3433 11.9648 20.3747 11.8275 20.5664C11.5974 20.9 11.2616 21.5931 11.2189 21.818C11.1409 22.2291 10.7476 22.2604 10.5843 21.8696C10.4896 21.6503 10.51 21.4733 10.6993 20.9682C10.9981 20.1664 11.7069 19.6502 12.1782 19.8954C12.2691 19.9415 12.4306 19.9783 12.5363 19.9783C12.7033 19.9783 12.7776 19.9304 13.1654 19.5507C13.401 19.3166 13.6534 19.0917 13.7221 19.0548C13.7889 19.0198 13.9373 18.9921 14.0524 19.0032C14.2194 19.0143 14.262 19.0345 14.262 19.112Z" fill="black"/>
<path d="M66.4169 26.3508C66.2554 26.6642 65.7507 27.1692 65.6097 27.1692C65.5522 27.1692 65.5633 27.1951 65.6524 27.2633C65.7247 27.3259 65.7563 27.3941 65.7359 27.4458C65.7099 27.514 65.6412 27.5232 65.2942 27.4974C64.7858 27.4623 64.5965 27.3683 64.5965 27.1379C64.5965 26.9351 64.7487 26.7379 65.0437 26.5646C65.3258 26.4043 65.6152 26.0909 65.7303 25.831C65.8769 25.4918 65.888 24.7674 65.7507 24.1425C65.5577 23.241 65.3833 22.583 65.2534 22.2604C65.001 21.641 64.3609 20.8281 63.9675 20.6143C63.7634 20.5037 63.7059 20.3525 63.832 20.2585C63.9044 20.2069 63.9731 20.2179 64.1883 20.312C64.5334 20.452 64.8285 20.7175 65.2998 21.3018C65.7247 21.8272 65.9827 22.2972 66.1868 22.9221C66.7787 24.7305 66.8381 25.5692 66.4169 26.3508Z" fill="black"/>
<path d="M15.2844 29.3905C15.2844 29.5417 14.9541 29.8164 14.724 29.8588C14.5496 29.8901 13.9002 29.5822 13.5532 29.3113C13.2025 29.0256 12.72 28.5352 12.6309 28.3583C12.5419 28.1868 12.5103 27.4974 12.5734 27.149C12.6198 26.9094 12.8091 26.1997 12.8777 26.0338C12.9353 25.8937 13.1338 25.8771 13.26 26.0135C13.3324 26.0965 13.3435 26.2218 13.3324 26.8098C13.3231 27.3887 13.3379 27.5398 13.4121 27.6799C13.5587 27.9453 14.5144 28.8689 14.917 29.1288C15.1174 29.2597 15.2844 29.374 15.2844 29.3905Z" fill="black"/>
<path d="M25.2211 31.8698C25.1896 32.0321 25.158 32.0689 24.9687 32.1353C24.4232 32.3344 23.8034 32.2662 23.5938 31.9804C23.4843 31.8348 23.2004 31.256 23.1336 31.0366C23.0909 30.9058 22.9183 30.8173 22.6919 30.8173C22.3468 30.8118 21.7734 30.4523 21.8681 30.2975C21.9163 30.2182 22.0314 30.2348 22.1037 30.3233C22.1779 30.4117 22.5973 30.5408 22.9703 30.5887C23.2171 30.6145 23.2579 30.6459 23.6624 31.0625L24.0929 31.5049L24.5958 31.5159C25.184 31.5325 25.2675 31.5786 25.2211 31.8698Z" fill="black"/>
<path d="M49.6572 37.3944C49.494 37.5197 49.3529 37.634 49.3418 37.6543C49.3307 37.682 49.2898 37.6967 49.2472 37.6967C49.2045 37.6967 49.121 37.7446 49.0635 37.7963C48.8649 37.9787 48.5495 38.0193 47.2951 38.0248C46.1316 38.0248 46.089 38.0248 45.8737 37.905C45.4599 37.6709 45.5694 37.3741 46.0741 37.3575C46.204 37.352 46.5621 37.3225 46.8665 37.2912C47.1708 37.2543 47.6569 37.2064 47.9575 37.175C48.2563 37.1437 48.5606 37.0921 48.6385 37.0497C48.7183 37.0147 48.8538 36.9667 48.9373 36.9465C49.1785 36.8893 49.9449 36.4561 50.0395 36.3271C50.0822 36.2644 50.1174 36.1759 50.1174 36.1335C50.1174 36.0856 50.1453 36.0248 50.1805 35.9879C50.2603 35.9087 50.2863 35.9087 50.3902 35.9879C50.7168 36.2478 50.4125 36.8211 49.6572 37.3944Z" fill="black"/>
<path d="M34.9573 36.3529C34.9573 36.504 33.7456 36.8635 33.2521 36.8635C32.9013 36.8635 32.4913 36.9667 32.1239 37.1492C31.994 37.2119 31.6637 37.3428 31.3909 37.4368C30.4724 37.7483 29.8007 37.6451 29.3238 37.1234C29.1178 36.9004 29.0287 36.5981 29.1345 36.4727C29.2236 36.3621 29.2867 36.3732 29.5427 36.5501C29.8582 36.7584 30.1198 36.7842 31.2332 36.7068C31.7676 36.6699 32.5711 36.6275 33.0164 36.6239C33.8087 36.6017 34.3339 36.5133 34.5899 36.3418C34.6994 36.2681 34.9573 36.2792 34.9573 36.3529Z" fill="black"/>
<path d="M63.0601 32.845C62.8616 32.3971 62.483 32.1408 61.6072 31.8643C61.507 31.8348 61.2769 31.7611 61.0988 31.704C60.6942 31.5731 60.2433 31.5731 59.9223 31.6984C59.6496 31.8035 59.592 31.8441 59.2784 32.1464C59.1615 32.257 58.9741 32.4284 58.8628 32.5224C58.564 32.7713 58.2597 33.1528 58.1243 33.4496C57.9758 33.7667 57.8552 34.4874 57.8979 34.8303C57.935 35.1216 58.0612 35.4036 58.1595 35.4036C58.1966 35.4036 58.3655 35.5345 58.5325 35.6911C59.0688 36.1962 59.1151 36.211 60.2693 36.2054C61.3715 36.2054 61.8484 36.1225 62.3105 35.8515C62.8875 35.5123 63.1919 34.7676 63.1919 33.6837C63.1919 33.2155 63.1696 33.0902 63.0601 32.845ZM62.1156 34.9133C61.9746 35.1805 61.5905 35.2838 60.6738 35.2948C60.0077 35.3004 59.4083 35.2063 58.8943 35.0128C58.8535 34.998 58.9203 34.8303 59.104 34.5077C59.2506 34.2423 59.4139 33.9547 59.4566 33.8773C59.4974 33.7943 59.5661 33.7095 59.6143 33.6837C59.6551 33.6635 59.8908 33.4644 60.1376 33.2469C60.3844 33.033 60.5996 32.8505 60.62 32.8505C60.6367 32.8505 60.8984 32.9077 61.1971 32.9796C61.4922 33.0533 61.7965 33.127 61.8688 33.1418C62.136 33.1934 62.1843 33.2247 62.2158 33.3611C62.2307 33.4386 62.2678 33.5529 62.2938 33.6211C62.394 33.8607 62.2938 34.5759 62.1156 34.9133Z" fill="black"/>
<path d="M20.4467 37.4884C20.378 37.3004 20.3001 37.0294 20.2685 36.8893C20.0904 36.0911 19.4242 35.2727 18.669 34.9243C17.9917 34.6164 17.7561 34.5759 16.4126 34.5482C15.5516 34.5335 15.1323 34.5445 14.943 34.5906C14.802 34.6275 14.5608 34.716 14.4142 34.7897C14.0579 34.9704 13.5383 35.5289 13.427 35.8515C13.3324 36.1335 13.3175 36.6128 13.401 36.764C13.4381 36.8322 13.4381 36.8893 13.4066 36.9299C13.2915 37.0718 13.0819 37.6709 13.0503 37.9566C13.028 38.1391 13.0447 38.4064 13.0819 38.6184C13.1505 38.9741 13.3175 39.4165 13.3862 39.4165C13.4066 39.4165 13.4585 39.4847 13.5124 39.5677C13.6274 39.776 13.8 39.8534 14.4457 39.9898C14.75 40.0525 15.0228 40.1262 15.0488 40.1465C15.0803 40.1668 15.2065 40.2147 15.3364 40.2497C15.4681 40.2811 15.6834 40.3548 15.8207 40.4064C15.9562 40.4636 16.125 40.5115 16.1918 40.5115C16.266 40.5115 16.4071 40.5484 16.5128 40.5889C16.6167 40.6313 16.8747 40.7032 17.0843 40.7511C17.2885 40.7972 17.5557 40.8599 17.6726 40.8857C17.9342 40.9484 18.374 40.9963 18.7469 41C19.3723 41.0111 20.1943 40.4064 20.5988 39.6451C20.7714 39.3115 20.7937 39.2285 20.7937 38.8893C20.7937 38.5096 20.7398 38.2866 20.4467 37.4884ZM19.1607 39.0995C19.1032 39.2027 18.9733 39.3594 18.8676 39.4368C18.6894 39.5788 18.6634 39.5824 18.3072 39.5566C17.3052 39.4682 16.6167 39.3281 15.5739 38.9999C15.3995 38.9483 15.1174 38.8746 14.943 38.8433C14.7704 38.8064 14.5775 38.7695 14.5144 38.7603C14.3307 38.7234 14.288 38.5778 14.2731 37.9105C14.262 37.4995 14.236 37.2598 14.1933 37.2174C14.1618 37.1861 14.1303 37.0497 14.1303 36.9206C14.1303 36.5446 14.403 36.1649 14.891 35.8736C15.0952 35.7483 15.1323 35.7427 16.1343 35.7427C16.7021 35.7427 17.1845 35.7225 17.2105 35.6948C17.2309 35.6745 17.4295 35.6635 17.6447 35.6801C17.9453 35.7003 18.1123 35.7427 18.348 35.8626C18.7525 36.0709 18.836 36.1538 18.9882 36.4874C19.0995 36.7326 19.1144 36.8266 19.0939 37.1713C19.0828 37.411 19.1144 37.8331 19.1719 38.2331L19.2721 38.9004L19.1607 39.0995Z" fill="black"/>
</g>
<defs>
<clipPath id="clip0_8_2">
<rect width="70" height="41" fill="white"/>
</clipPath>
<clipPath id="clip1_8_2">
<rect width="70" height="41" fill="white"/>
</clipPath>
</defs>
</svg>
